<svg width="280" height="281" viewBox="0 0 280 281" fill="none" xmlns="http://www.w3.org/2000/svg">
<g clip-path="url(#clip0)">
<path d="M245.804 196.476C235.643 215.739 220.421 231.866 201.776 243.122C183.132 254.379 161.771 260.337 139.993 260.358C73.9654 260.358 20.2644 206.648 20.2644 140.626C20.2644 74.6043 73.9799 20.8658 140.007 20.8658C206.035 20.8658 259.736 74.5754 259.736 140.597C259.722 152.136 258.032 163.611 254.718 174.664C260.254 179.005 266.17 182.838 272.395 186.116C277.437 171.46 280.007 156.067 280 140.568C280 63.3043 217.327 0.622559 140.007 0.622559C62.6873 0.622559 0 63.3043 0 140.626C0 217.948 62.6729 280.623 140.007 280.623C165.284 280.633 190.092 273.796 211.795 260.839C233.498 247.881 251.287 229.287 263.271 207.031C257.198 203.946 251.36 200.418 245.804 196.476Z" fill="#1C98D5"/>
<path d="M57.3374 93.4378C61.4926 100.57 63.6899 108.673 63.7066 116.927V116.971V194.466H93.261V140.106C93.261 125.039 99.7676 117.368 113.055 117.368C125.461 117.368 129.307 124.164 129.307 135.688V194.466H158.833V140.106C158.833 125.039 165.339 117.368 178.642 117.368C191.048 117.368 194.879 124.164 194.879 135.688V194.466H224.434V132.739C224.434 107.319 210.242 90.8062 186.905 90.8062C170.668 90.8062 158.833 96.12 150.273 107.933C144.67 96.7201 135.214 90.8062 121.63 90.8062C109.217 90.8062 99.4639 95.238 93.261 104.984V93.4378H57.3374Z" fill="#1F2A6B"/>
</g>
<defs>
<clipPath id="clip0">
<rect width="280" height="280" fill="white" transform="translate(0 0.622559)"/>
</clipPath>
</defs>
</svg>
