<svg width="77" height="63" viewBox="0 0 77 63" fill="none" xmlns="http://www.w3.org/2000/svg">
<path d="M3.406 55.6747C3.39358 55.221 3.47658 54.7696 3.64979 54.3489C3.82301 53.9281 4.08271 53.547 4.41266 53.2294C4.7426 52.9119 5.13569 52.6646 5.56731 52.5032C5.99893 52.3418 6.45981 52.2697 6.92109 52.2914C7.3188 52.2615 7.71794 52.3272 8.08399 52.483C8.45004 52.6387 8.77197 52.8798 9.02196 53.1853L8.43535 53.6858C8.24564 53.4604 8.00388 53.2828 7.73021 53.1677C7.45654 53.0527 7.15887 53.0035 6.86197 53.0244C6.51029 53.0149 6.16038 53.0766 5.83394 53.2055C5.50749 53.3344 5.21145 53.5278 4.96418 53.7738C4.71691 54.0197 4.52367 54.313 4.39644 54.6354C4.2692 54.9578 4.21069 55.3024 4.22452 55.6479C4.22452 56.6714 4.90662 57.3552 6.19806 57.3552C6.51867 57.3646 6.83789 57.31 7.13645 57.1948C7.435 57.0796 7.70671 56.9061 7.93514 56.6848L8.38988 57.2166C8.0924 57.5069 7.73645 57.7327 7.34489 57.8798C6.95332 58.0268 6.5348 58.0917 6.11621 58.0703C4.41551 58.0479 3.406 57.0825 3.406 55.6747Z" fill="white"/>
<path d="M13.6419 55.0937C13.6414 55.2615 13.6262 55.429 13.5964 55.5943L13.1099 57.9854H12.3186L12.8052 55.5943C12.8286 55.4779 12.8422 55.3598 12.8461 55.2412C12.8461 54.6825 12.5187 54.3697 11.8366 54.3697C11.4454 54.3491 11.061 54.4766 10.7624 54.726C10.4639 54.9754 10.2739 55.3277 10.2314 55.7105L9.77668 57.9675H8.98999L10.1996 51.9965H10.9863L10.5315 54.1998C10.9505 53.8292 11.5008 53.635 12.064 53.6591C13.0508 53.6769 13.6419 54.1864 13.6419 55.0937Z" fill="white"/>
<path d="M19.367 53.7172L18.5076 57.9854H17.7573L17.8618 57.4625C17.4464 57.8416 16.8961 58.0455 16.3294 58.0301C16.0768 58.0482 15.8231 58.0132 15.5853 57.9276C15.3474 57.842 15.1308 57.7077 14.9498 57.5336C14.7688 57.3595 14.6275 57.1495 14.5353 56.9177C14.4431 56.6858 14.4021 56.4373 14.415 56.1887C14.3975 55.8627 14.4483 55.5366 14.5643 55.2306C14.6802 54.9246 14.8587 54.6452 15.0889 54.4098C15.3191 54.1744 15.596 53.9879 15.9024 53.8618C16.2088 53.7357 16.5384 53.6728 16.8705 53.6769C17.1778 53.6483 17.4872 53.7047 17.7636 53.8397C18.04 53.9748 18.2725 54.1831 18.4348 54.4412L18.5849 53.7172H19.367ZM18.1893 55.5541C18.2015 55.3874 18.1758 55.2202 18.1142 55.0645C18.0525 54.9088 17.9564 54.7686 17.8328 54.6539C17.7091 54.5393 17.5611 54.4531 17.3994 54.4016C17.2377 54.3501 17.0664 54.3346 16.8978 54.3563C16.6647 54.357 16.4343 54.4047 16.2207 54.4963C16.0071 54.588 15.8149 54.7217 15.656 54.8893C15.497 55.0568 15.3747 55.2546 15.2966 55.4704C15.2184 55.6862 15.1861 55.9155 15.2017 56.144C15.1894 56.3107 15.2151 56.4779 15.2767 56.6336C15.3384 56.7893 15.4345 56.9295 15.5581 57.0442C15.6818 57.1588 15.8298 57.245 15.9915 57.2965C16.1532 57.348 16.3246 57.3635 16.4931 57.3418C16.7262 57.3411 16.9566 57.2934 17.1702 57.2018C17.3838 57.1101 17.576 56.9764 17.735 56.8088C17.8939 56.6413 18.0162 56.4435 18.0944 56.2277C18.1725 56.0119 18.2048 55.7826 18.1893 55.5541Z" fill="white"/>
<path d="M23.0505 53.6769L22.905 54.4278C22.8369 54.4231 22.7685 54.4231 22.7004 54.4278C21.8318 54.4278 21.2589 54.8747 21.0633 55.858L20.6086 57.9943H19.8401L20.6995 53.7261H21.4544L21.3316 54.3652C21.541 54.1234 21.8064 53.9347 22.1056 53.8149C22.4048 53.6951 22.7288 53.6478 23.0505 53.6769Z" fill="white"/>
<path d="M24.3191 56.6223C24.3106 56.698 24.3106 56.7744 24.3191 56.8502C24.3191 57.1809 24.4965 57.382 24.8921 57.382C25.1155 57.3777 25.3325 57.3076 25.5151 57.1809L25.6788 57.7664C25.3771 57.9524 25.0252 58.0444 24.6693 58.0301C24.5203 58.0443 24.3699 58.0269 24.2283 57.9791C24.0867 57.9312 23.9572 57.8541 23.8485 57.7528C23.7399 57.6515 23.6546 57.5285 23.5985 57.3921C23.5424 57.2556 23.5168 57.1089 23.5234 56.9619C23.5233 56.8539 23.534 56.7461 23.5552 56.6401L24.0099 54.3563H23.2642L23.3869 53.7172H24.1327L24.3191 52.7831H25.1058L24.9194 53.7172H26.1608L26.0289 54.3563H24.7875L24.3191 56.6223Z" fill="white"/>
<path d="M26.9975 56.0904V56.1395C26.9975 56.9217 27.4522 57.3552 28.3617 57.3552C28.8643 57.3724 29.3538 57.196 29.7259 56.8636L30.0624 57.4222C29.5787 57.8301 28.9579 58.0468 28.3208 58.03C27.0339 58.03 26.2426 57.306 26.2426 56.1797C26.2245 55.8547 26.2746 55.5295 26.3898 55.2243C26.5051 54.9191 26.6829 54.6405 26.9124 54.4057C27.1418 54.171 27.418 53.9851 27.7236 53.8597C28.0293 53.7344 28.3579 53.6721 28.6891 53.6769C28.9446 53.6532 29.2024 53.6842 29.4446 53.7677C29.6868 53.8512 29.9077 53.9852 30.0922 54.1606C30.2767 54.336 30.4204 54.5485 30.5133 54.7837C30.6063 55.0188 30.6464 55.2709 30.6308 55.5228C30.6283 55.7133 30.6085 55.9033 30.5717 56.0904H26.9975ZM27.0793 55.5272H29.8805C29.9005 55.3632 29.8822 55.1969 29.827 55.0409C29.7718 54.885 29.6811 54.7434 29.5618 54.627C29.4426 54.5107 29.2979 54.4226 29.1388 54.3695C28.9797 54.3164 28.8103 54.2996 28.6436 54.3205C28.2808 54.3113 27.926 54.4268 27.6405 54.6471C27.3549 54.8673 27.1565 55.1786 27.0793 55.5272Z" fill="white"/>
<path d="M34.2824 53.6769L34.1324 54.4278C34.0642 54.4231 33.9959 54.4231 33.9277 54.4278C33.0638 54.4278 32.4908 54.8747 32.2907 55.858L31.836 57.9943H31.072L31.9315 53.7261H32.6863L32.5635 54.3652C32.7727 54.1232 33.0381 53.9342 33.3373 53.8144C33.6365 53.6946 33.9607 53.6474 34.2824 53.6769Z" fill="white"/>
<path d="M36.4742 55.6747C36.4612 55.2212 36.5436 54.7699 36.7163 54.3492C36.889 53.9285 37.1483 53.5473 37.4779 53.2297C37.8075 52.912 38.2003 52.6647 38.6316 52.5033C39.063 52.3418 39.5237 52.2697 39.9848 52.2914C40.3832 52.2608 40.7833 52.3262 41.1502 52.4819C41.5171 52.6377 41.8398 52.8791 42.0902 53.1853L41.5036 53.6859C41.3139 53.4604 41.0721 53.2828 40.7985 53.1677C40.5248 53.0527 40.2271 53.0035 39.9302 53.0244C39.5785 53.0149 39.2286 53.0766 38.9022 53.2055C38.5757 53.3344 38.2797 53.5278 38.0324 53.7738C37.7852 54.0198 37.5919 54.313 37.4647 54.6354C37.3374 54.9578 37.2789 55.3024 37.2928 55.6479C37.2928 56.6714 37.9749 57.3552 39.2663 57.3552C39.5869 57.3646 39.9061 57.31 40.2047 57.1948C40.5033 57.0796 40.775 56.9061 41.0034 56.6848L41.4581 57.2167C41.1605 57.5067 40.8045 57.7324 40.413 57.8794C40.0215 58.0264 39.603 58.0914 39.1845 58.0703C37.4837 58.0479 36.4742 57.0826 36.4742 55.6747Z" fill="white"/>
<path d="M46.7057 55.0937C46.7058 55.2618 46.689 55.4295 46.6557 55.5943L46.1737 57.9854H45.387L45.8736 55.5943C45.8969 55.4779 45.9106 55.3598 45.9145 55.2412C45.9145 54.6825 45.5871 54.3697 44.905 54.3697C44.5137 54.3491 44.1293 54.4766 43.8308 54.726C43.5323 54.9754 43.3422 55.3277 43.2998 55.7105L42.845 57.9675H42.0583L43.2679 51.9965H44.0546L43.5999 54.1998C44.0189 53.8292 44.5692 53.635 45.1323 53.6591C46.1191 53.6769 46.7057 54.1864 46.7057 55.0937Z" fill="white"/>
<path d="M52.4354 53.7172L51.5759 57.9854H50.8256L50.9302 57.4625C50.5147 57.8416 49.9645 58.0455 49.3978 58.0301C49.1451 58.0482 48.8915 58.0132 48.6537 57.9276C48.4158 57.842 48.1992 57.7077 48.0182 57.5336C47.8371 57.3595 47.6958 57.1495 47.6036 56.9177C47.5114 56.6858 47.4704 56.4373 47.4833 56.1887C47.4659 55.8627 47.5167 55.5366 47.6326 55.2306C47.7485 54.9246 47.9271 54.6452 48.1573 54.4098C48.3874 54.1744 48.6643 53.9879 48.9708 53.8618C49.2772 53.7357 49.6067 53.6728 49.9389 53.6769C50.2462 53.6483 50.5555 53.7047 50.832 53.8397C51.1084 53.9748 51.3409 54.1831 51.5032 54.4412L51.6487 53.7172H52.4354ZM51.2667 55.5541C51.2791 55.387 51.2533 55.2194 51.1914 55.0633C51.1295 54.9072 51.033 54.7667 50.9088 54.652C50.7847 54.5372 50.636 54.4511 50.4737 54.4C50.3115 54.3488 50.1396 54.3339 49.9707 54.3563C49.738 54.3576 49.5081 54.4057 49.295 54.4977C49.082 54.5896 48.8903 54.7234 48.7319 54.8909C48.5734 55.0584 48.4515 55.2559 48.3736 55.4714C48.2958 55.6869 48.2636 55.9158 48.2791 56.144C48.2669 56.3107 48.2925 56.4779 48.3542 56.6336C48.4158 56.7893 48.512 56.9295 48.6356 57.0442C48.7592 57.1588 48.9073 57.245 49.069 57.2965C49.2307 57.348 49.402 57.3635 49.5706 57.3418C49.8036 57.3411 50.0341 57.2934 50.2477 57.2018C50.4613 57.1101 50.6535 56.9764 50.8124 56.8088C50.9714 56.6413 51.0937 56.4435 51.1718 56.2277C51.25 56.0119 51.2823 55.7826 51.2667 55.5541Z" fill="white"/>
<path d="M57.8648 55.5138C57.8823 55.8404 57.8314 56.1671 57.7152 56.4737C57.5991 56.7802 57.4202 57.06 57.1896 57.2959C56.959 57.5317 56.6816 57.7186 56.3746 57.8449C56.0676 57.9711 55.7375 58.0342 55.4047 58.03C55.0964 58.0575 54.7864 58.0002 54.5094 57.8644C54.2323 57.7287 53.9991 57.5199 53.8359 57.2613L53.3812 59.5452H52.5945L53.7722 53.735H54.5271L54.4225 54.2669C54.8274 53.883 55.3697 53.6711 55.9322 53.6769C56.1859 53.6562 56.4411 53.6891 56.6809 53.7732C56.9206 53.8573 57.1393 53.9908 57.3222 54.1647C57.5052 54.3386 57.6483 54.549 57.7419 54.7816C57.8354 55.0143 57.8774 55.2639 57.8648 55.5138ZM57.0691 55.554C57.0814 55.387 57.0557 55.2193 56.9938 55.0633C56.9319 54.9072 56.8353 54.7667 56.7112 54.6519C56.587 54.5372 56.4384 54.4511 56.2761 54.4C56.1138 54.3488 55.942 54.3339 55.7731 54.3562C55.5402 54.3569 55.3099 54.4046 55.0966 54.4963C54.8832 54.588 54.6913 54.7218 54.5327 54.8894C54.3741 55.057 54.2522 55.2549 54.1746 55.4707C54.097 55.6865 54.0653 55.9157 54.0815 56.144C54.0692 56.3106 54.0949 56.4778 54.1565 56.6335C54.2182 56.7892 54.3143 56.9295 54.4379 57.0441C54.5616 57.1588 54.7096 57.245 54.8713 57.2965C55.033 57.3479 55.2044 57.3634 55.3729 57.3418C55.606 57.3411 55.8364 57.2934 56.05 57.2017C56.2636 57.1101 56.4558 56.9763 56.6148 56.8088C56.7737 56.6413 56.896 56.4435 56.9742 56.2277C57.0523 56.0119 57.0846 55.7826 57.0691 55.554Z" fill="white"/>
<path d="M59.4883 56.6223C59.482 56.6981 59.482 56.7743 59.4883 56.8502C59.4813 56.9245 59.4915 56.9995 59.5183 57.0693C59.5451 57.1392 59.5877 57.2021 59.6429 57.2534C59.6981 57.3046 59.7645 57.3429 59.837 57.3652C59.9095 57.3875 59.9862 57.3932 60.0613 57.382C60.2847 57.3777 60.5017 57.3076 60.6843 57.1809L60.848 57.7664C60.5477 57.9518 60.1974 58.0437 59.843 58.0301C59.6938 58.0442 59.5432 58.0268 59.4014 57.979C59.2596 57.9312 59.1298 57.8541 59.0208 57.753C58.9118 57.6518 58.8262 57.5288 58.7695 57.3924C58.7129 57.2559 58.6867 57.1092 58.6926 56.9619C58.6919 56.8536 58.7041 56.7456 58.7289 56.6401L59.1837 54.3563H58.4333L58.5561 53.7172H59.3019L59.4883 52.7831H60.275L60.0886 53.7172H61.3346L61.2027 54.3563H59.9567L59.4883 56.6223Z" fill="white"/>
<path d="M62.1666 56.0904V56.1395C62.1666 56.9217 62.6213 57.3552 63.5308 57.3552C64.0256 57.3666 64.5059 57.1906 64.8723 56.8636L65.2088 57.4222C64.7228 57.8293 64.101 58.0458 63.4626 58.0301C62.1802 58.0301 61.3845 57.306 61.3845 56.1798C61.367 55.8549 61.4176 55.5299 61.5331 55.225C61.6485 54.9201 61.8264 54.6418 62.0557 54.4072C62.2851 54.1725 62.5609 53.9867 62.8663 53.8611C63.1716 53.7355 63.4999 53.6728 63.8309 53.6769C64.0865 53.6532 64.3442 53.6842 64.5864 53.7677C64.8286 53.8512 65.0495 53.9852 65.234 54.1606C65.4185 54.336 65.5622 54.5486 65.6552 54.7837C65.7481 55.0188 65.7882 55.271 65.7726 55.5228C65.7724 55.7134 65.7526 55.9036 65.7135 56.0904H62.1666ZM62.2485 55.5272H65.0496C65.0696 55.3632 65.0513 55.1969 64.9961 55.0409C64.9409 54.885 64.8502 54.7434 64.7309 54.6271C64.6117 54.5107 64.467 54.4226 64.3079 54.3695C64.1488 54.3164 63.9794 54.2996 63.8127 54.3205C63.4499 54.3113 63.0951 54.4268 62.8096 54.6471C62.524 54.8673 62.3256 55.1786 62.2485 55.5272Z" fill="white"/>
<path d="M69.4514 53.6769L69.3058 54.4278C69.2377 54.4231 69.1693 54.4231 69.1012 54.4278C68.2327 54.4278 67.6597 54.8747 67.4642 55.858L67.0094 57.9943H66.2273L67.0867 53.7261H67.837L67.7143 54.3652C67.9255 54.1208 68.1939 53.9305 68.4965 53.8106C68.7991 53.6907 69.1267 53.6448 69.4514 53.6769Z" fill="white"/>
<path d="M3.8562 41.708H5.15674V48.5908H3.8562V41.708Z" fill="white"/>
<path d="M9.94046 48.3048C9.59096 48.55 9.16918 48.6756 8.73996 48.6623C7.56675 48.6623 6.92103 48.05 6.92103 46.8746V44.3628H6.01611V43.3795H6.8983V42.1818H8.14881V43.3795H9.57667V44.3628H8.14881V46.8612C8.14881 47.3707 8.40801 47.6478 8.89003 47.6478C9.14209 47.6558 9.38932 47.5785 9.59032 47.4288L9.94046 48.3048Z" fill="white"/>
<path d="M15.2428 45.5114V48.5908H14.0605V47.9517C13.8636 48.1998 13.6062 48.395 13.312 48.5193C13.0179 48.6435 12.6966 48.6927 12.378 48.6623C11.1593 48.6623 10.3862 48.0008 10.3862 47.0846C10.3862 46.1684 10.991 45.5248 12.6099 45.5248H13.9741V45.4444C13.9741 44.7248 13.5193 44.3047 12.6417 44.3047C12.0588 44.2982 11.49 44.4804 11.0229 44.8231L10.5317 43.9293C11.1985 43.4774 11.9962 43.2501 12.8054 43.2812C14.3515 43.2812 15.2428 44.0008 15.2428 45.5114ZM13.9923 46.9505V46.3382H12.7008C11.8505 46.3382 11.6186 46.6556 11.6186 47.0355C11.6186 47.4154 12.0005 47.764 12.6417 47.764C12.925 47.7834 13.2073 47.7154 13.4494 47.5696C13.6915 47.4238 13.8813 47.2074 13.9923 46.9505Z" fill="white"/>
<path d="M16.6387 41.2924H17.8892V48.5908H16.6387V41.2924Z" fill="white"/>
<path d="M19.1624 41.7348C19.1641 41.6342 19.1863 41.535 19.2278 41.4431C19.2692 41.3512 19.3291 41.2683 19.4037 41.1996C19.4783 41.1308 19.5663 41.0774 19.6623 41.0427C19.7583 41.008 19.8605 40.9925 19.9627 40.9973C20.0632 40.9901 20.1642 41.0029 20.2596 41.035C20.3549 41.0672 20.4427 41.118 20.5175 41.1844C20.5923 41.2509 20.6526 41.3315 20.6948 41.4215C20.737 41.5115 20.7602 41.6089 20.763 41.708C20.7666 41.9166 20.6858 42.1181 20.5383 42.2681C20.3907 42.4181 20.1886 42.5044 19.9763 42.508C19.7641 42.5115 19.5591 42.4321 19.4064 42.2871C19.2538 42.1421 19.166 41.9434 19.1624 41.7348ZM19.3306 43.3527H20.5811V48.6042H19.3306V43.3527Z" fill="white"/>
<path d="M26.4929 45.5114V48.5908H25.3151V47.9517C25.1182 48.1998 24.8608 48.395 24.5667 48.5193C24.2725 48.6435 23.9512 48.6927 23.6326 48.6623C22.4139 48.6623 21.6409 48.0008 21.6409 47.0846C21.6409 46.1684 22.2411 45.5248 23.8645 45.5248H25.2287V45.4444C25.2287 44.7248 24.774 44.3047 23.9009 44.3047C23.3182 44.2992 22.7496 44.4813 22.282 44.8231L21.7955 43.9293C22.4622 43.4774 23.2599 43.2501 24.0691 43.2812C25.6061 43.2812 26.4929 44.0008 26.4929 45.5114ZM25.2424 46.9505V46.3382H23.9555C23.1051 46.3382 22.8732 46.6556 22.8732 47.0355C22.8732 47.4154 23.2552 47.764 23.8918 47.764C24.175 47.7834 24.4574 47.7154 24.6995 47.5696C24.9416 47.4238 25.1314 47.2074 25.2424 46.9505Z" fill="white"/>
<path d="M69.1195 2.97211H51.9306H51.6578C50.3774 3.03855 49.1718 3.58571 48.2901 4.50059C47.4083 5.41547 46.9177 6.62821 46.9194 7.8884V31.9067C46.9194 32.3285 47.004 32.7461 47.1684 33.1358C47.3328 33.5254 47.5737 33.8793 47.8773 34.1774C48.181 34.4754 48.5415 34.7117 48.9381 34.8727C49.3348 35.0337 49.7598 35.1163 50.189 35.1157H52.1853C52.6163 35.1192 53.0438 35.0388 53.4431 34.8792C53.8424 34.7195 54.2055 34.4837 54.5116 34.1853C54.8177 33.887 55.0606 33.532 55.2264 33.141C55.3922 32.7499 55.4775 32.3304 55.4775 31.9067V10.2795C55.4775 10.123 55.5408 9.97298 55.6533 9.86234C55.7659 9.7517 55.9186 9.68955 56.0778 9.68955H69.1195C69.711 9.68956 70.2784 9.45988 70.6983 9.05052C71.1182 8.64116 71.3566 8.0853 71.3614 7.50403V5.21125C71.3662 4.9189 71.3118 4.62854 71.2013 4.35707C71.0908 4.0856 70.9264 3.83846 70.7177 3.63005C70.5091 3.42165 70.2603 3.25614 69.9859 3.14318C69.7115 3.03022 69.417 2.97207 69.1195 2.97211Z" fill="white"/>
<path d="M11.6274 6.14535V31.8531C11.6274 32.7053 11.2829 33.5227 10.6698 34.1253C10.0566 34.728 9.22499 35.0665 8.35785 35.0665H6.36612C5.93638 35.0671 5.51073 34.9844 5.11353 34.8232C4.71633 34.662 4.35536 34.4254 4.05127 34.1269C3.74719 33.8285 3.50595 33.474 3.34135 33.0838C3.17676 32.6937 3.09204 32.2754 3.09204 31.8531V6.14535C3.09204 5.72298 3.17676 5.30475 3.34135 4.91458C3.50595 4.52441 3.74719 4.16996 4.05127 3.87151C4.35536 3.57305 4.71633 3.33644 5.11353 3.17521C5.51073 3.01399 5.93638 2.9313 6.36612 2.93189H8.3624C9.22874 2.93307 10.0592 3.27216 10.6714 3.87467C11.2835 4.47718 11.6274 5.29386 11.6274 6.14535Z" fill="white"/>
<path d="M68.2099 15.0349C67.0685 14.9679 65.9362 14.9455 64.7766 14.9768C62.4943 15.0343 60.2233 15.3128 57.9966 15.8081C53.4174 16.8361 49.484 18.9367 45.7188 21.663C44.0135 22.9323 42.2901 24.2373 40.4439 25.3412C37.188 27.2631 33.2363 28.5771 29.5575 27.5491C27.8266 27.0305 26.2836 26.0341 25.1123 24.6784C23.941 23.3227 23.1905 21.6649 22.9503 19.902C22.7362 18.1274 23.0612 16.3302 23.8844 14.7367C24.7075 13.1433 25.992 11.8248 27.5761 10.9475C29.1601 10.0701 30.9729 9.67305 32.7861 9.8063C34.5993 9.93956 36.3318 10.5972 37.7655 11.6963C38.4521 12.2192 39.1615 12.8807 40.0392 12.8449C40.8395 12.8092 41.4716 12.1924 42.0081 11.6114C43.004 10.5387 44.0408 9.18453 43.6634 7.78116C43.4178 6.88729 42.6266 6.21241 41.8444 5.68503C38.0119 3.10228 33.3145 2.06945 28.7275 2.801C24.1406 3.53254 20.0165 5.97225 17.2115 9.61359C14.6832 12.8494 13.842 17.2964 14.4195 21.3144C14.7112 23.3803 15.4028 25.3723 16.4567 27.1826C17.765 29.3718 19.5639 31.2389 21.7166 32.6422C23.8693 34.0455 26.3192 34.948 28.88 35.2811C33.1636 35.804 37.5199 34.6643 41.3761 32.738C45.8643 30.5033 49.6522 27.1826 53.5629 24.0854C56.6551 21.6406 59.8201 19.3255 63.4807 17.7523C66.0083 16.665 68.6515 15.8585 71.3612 15.3478C69.1193 15.093 69.1194 15.093 68.2099 15.0349Z" fill="white"/>
</svg>
