<svg width="150" height="150" viewBox="0 0 150 150" fill="none" xmlns="http://www.w3.org/2000/svg">
<path d="M80.3267 37.713H95.5078C98.8902 37.713 101.633 40.4563 101.633 43.8388V59.0199C101.633 60.8576 101.399 62.642 100.962 64.3466H105.671C109.325 64.3466 112.287 67.3082 112.287 70.9623V88.3167C112.287 92.8309 111.013 97.2533 108.611 101.075C106.208 104.897 102.776 107.963 98.7078 109.92C94.6399 111.876 90.1021 112.645 85.6167 112.136C81.1313 111.628 76.8806 109.863 73.354 107.045L68.8955 111.509C68.3954 112.009 67.7174 112.289 67.0107 112.288C66.3039 112.288 65.6263 112.007 65.1269 111.507C64.6275 111.006 64.3472 110.328 64.3477 109.622C64.3482 108.915 64.6295 108.237 65.1296 107.738L69.588 103.279C67.7003 100.923 66.276 98.2296 65.3906 95.3427C62.1992 96.3426 58.8172 96.5773 55.5182 96.0277C52.2193 95.4781 49.0961 94.1596 46.4013 92.1789C43.7065 90.1983 41.5157 87.6111 40.0064 84.6266C38.497 81.6422 37.7114 78.3444 37.713 75V59.8082C37.713 56.4364 40.4563 53.6932 43.8387 53.6932H59.0198C59.2436 53.6932 59.4673 53.6932 59.691 53.7038C60.8718 49.1282 63.5394 45.0746 67.2747 42.1801C71.01 39.2856 75.6011 37.7143 80.3267 37.713ZM90.2024 90.2024L77.1519 103.253C79.9233 105.325 83.2168 106.585 86.6636 106.892C90.1105 107.199 93.5748 106.54 96.6686 104.99C99.7625 103.44 102.364 101.059 104.181 98.1145C105.999 95.1697 106.961 91.7772 106.96 88.3167V70.957C106.959 70.6161 106.822 70.2895 106.581 70.0489C106.339 69.8083 106.012 69.6733 105.671 69.6733H88.3167C84.8567 69.6733 81.4649 70.6361 78.5209 72.4542C75.577 74.2722 73.197 76.8736 71.6474 79.9672C70.0978 83.0609 69.4397 86.5247 69.7468 89.9711C70.0538 93.4175 71.3139 96.7105 73.386 99.4815L86.4364 86.4311C86.9365 85.9317 87.6145 85.6514 88.3213 85.6519C89.028 85.6524 89.7056 85.9336 90.205 86.4337C90.7044 86.9338 90.9847 87.6119 90.9842 88.3186C90.9837 89.0254 90.7025 89.703 90.2024 90.2024ZM95.3959 64.3466C95.9818 62.6793 96.3068 60.8842 96.3068 59.0199V43.8388C96.3068 43.6268 96.2226 43.4236 96.0727 43.2738C95.9229 43.1239 95.7197 43.0397 95.5078 43.0397H80.3267C76.8699 43.0403 73.5065 44.1613 70.7407 46.2347C67.9748 48.3081 65.9556 51.2222 64.9857 54.5401C67.9731 55.4143 70.7333 56.9309 73.0732 58.9837C75.413 61.0365 77.2759 63.5758 78.5316 66.424C81.6101 65.0486 84.9449 64.3406 88.3167 64.3466H95.4012H95.3959ZM73.9026 69.1619C72.7283 66.1717 70.6802 63.6046 68.0255 61.7955C65.3707 59.9864 62.2324 59.0191 59.0198 59.0199H43.8387C43.6268 59.0199 43.4236 59.104 43.2737 59.2539C43.1239 59.4037 43.0397 59.607 43.0397 59.8189V75C43.039 77.5626 43.6546 80.0878 44.8346 82.3626C46.0145 84.6374 47.7243 86.5951 49.8196 88.0704C51.9149 89.5458 54.3343 90.4957 56.8737 90.8398C59.4131 91.184 61.998 90.9124 64.4105 90.0479C64.2753 88.166 64.3593 86.2748 64.6608 84.4123L54.4708 74.2223C54.2232 73.9746 54.0268 73.6807 53.8928 73.3571C53.7587 73.0336 53.6898 72.6868 53.6898 72.3366C53.6898 71.9864 53.7587 71.6397 53.8928 71.3161C54.0268 70.9926 54.2232 70.6986 54.4708 70.451C54.7185 70.2033 55.0124 70.0069 55.336 69.8729C55.6595 69.7389 56.0063 69.6699 56.3565 69.6699C56.7067 69.6699 57.0534 69.7389 57.377 69.8729C57.7005 70.0069 57.9945 70.2033 58.2421 70.451L66.392 78.6062C68.0592 74.8562 70.6587 71.6069 73.9026 69.1619Z" fill="#0092D4"/>
<g clip-path="url(#clip0)">
<path d="M131.689 104.921C120.92 125.254 99.567 139.141 75 139.141C39.63 139.141 10.86 110.369 10.86 74.9993C10.86 39.6297 39.6345 10.8588 75 10.8588C110.366 10.8588 139.143 39.6312 139.143 75.0023C139.135 81.1849 138.23 87.3336 136.457 93.2563C139.422 95.5809 142.592 97.6333 145.926 99.3885C148.624 91.5413 150.001 83.3005 150 75.0023C150 33.5785 116.424 0 75 0C33.576 0 0 33.5785 0 75.0023C0 116.426 33.5775 150.005 75 150.005C103.547 150.005 128.368 134.053 141.035 110.582C137.784 108.927 134.66 107.036 131.685 104.925" fill="#2699D6"/>
</g>
<defs>
<clipPath id="clip0">
<rect width="150" height="150" fill="white"/>
</clipPath>
</defs>
</svg>
