<svg width="220" height="70" viewBox="0 0 220 70" fill="none" xmlns="http://www.w3.org/2000/svg">
<g clip-path="url(#clip0)">
<path d="M52.0712 61.7438C50.8721 64.047 48.9189 65.8841 46.5279 66.9578C44.1368 68.0315 41.4479 68.2789 38.8963 67.66C36.3448 67.0411 34.08 65.5921 32.4685 63.5475C30.8571 61.503 29.9933 58.9826 30.017 56.3943C30.0408 53.8061 30.9507 51.3015 32.5994 49.2859C34.2481 47.2704 36.5391 45.862 39.1016 45.2886C41.6641 44.7152 44.3481 45.0105 46.719 46.1266C49.09 47.2426 51.0091 49.1142 52.1658 51.4384C52.6968 51.0159 53.2895 50.6747 53.9239 50.4264C52.5409 47.7236 50.2759 45.557 47.4925 44.2747C44.7092 42.9923 41.569 42.6686 38.5764 43.3556C35.5838 44.0425 32.9125 45.7002 30.9914 48.0625C29.0703 50.4248 28.0111 53.3544 27.9837 56.381C27.9563 59.4076 28.9625 62.3554 30.8405 64.751C32.7186 67.1465 35.3596 68.8509 38.3393 69.5902C41.319 70.3295 44.4645 70.0609 47.2706 68.8276C50.0767 67.5943 52.3805 65.4678 53.8121 62.7896C53.1817 62.5292 52.5949 62.1766 52.0712 61.7438Z" fill="white"/>
<path d="M56.7051 59.3643C57.6547 59.3846 58.5766 59.0486 59.2842 58.4243L61.0035 60.1179C60.1052 61.0621 58.8027 61.7438 56.7524 61.7438C53.3136 61.7438 51.1128 59.5802 51.1128 56.6164C51.1128 53.6527 53.4555 51.4891 56.4644 51.4891C59.9332 51.4891 61.8976 54.1946 61.6698 57.586H54.1346C54.4226 58.6657 55.2608 59.3516 56.7137 59.3516L56.7051 59.3643ZM58.6523 55.5918C58.5711 55.0972 58.3062 54.65 57.909 54.337C57.5119 54.024 57.0107 53.8677 56.5031 53.8982C55.9749 53.8602 55.4505 54.0102 55.0252 54.3211C54.6 54.6319 54.3022 55.0829 54.1862 55.5918H58.6523Z" fill="white"/>
<path d="M79.9683 56.6291C79.9683 53.6654 82.3367 51.5018 85.3757 51.5018C88.4147 51.5018 90.7832 53.6696 90.7832 56.6291C90.7832 59.5887 88.4104 61.7565 85.3757 61.7565C82.341 61.7565 79.9683 59.5929 79.9683 56.6291ZM87.8043 56.6291C87.8043 55.0626 86.8759 53.9236 85.3757 53.9236C83.8756 53.9236 82.9428 55.0626 82.9428 56.6291C82.9428 58.1957 83.8713 59.3346 85.3757 59.3346C86.8802 59.3346 87.8043 58.1957 87.8043 56.6291Z" fill="white"/>
<path d="M96.3713 56.6291C96.3713 53.6654 98.3959 51.5018 100.971 51.5018C102.475 51.5018 103.429 52.0141 103.98 52.8694V51.7558H106.872V61.494H103.98V60.3889C103.429 61.2357 102.475 61.7565 100.971 61.7565C98.3916 61.7565 96.3713 59.5929 96.3713 56.6291ZM104.035 56.6291C104.035 55.0329 103.197 54.0083 101.723 54.0083C100.249 54.0083 99.3545 55.0329 99.3545 56.6291C99.3545 58.2253 100.253 59.25 101.727 59.25C103.202 59.25 104.04 58.2253 104.04 56.6291" fill="white"/>
<path d="M33.5879 51.7558C33.9851 52.4422 34.1954 53.2182 34.1983 54.0083V61.5024H37.0868V56.2565C37.0868 54.8042 37.723 54.0633 39.0254 54.0633C40.2419 54.0633 40.6202 54.7196 40.6202 55.8331V61.5024H43.5087V56.2565C43.5087 54.8042 44.1449 54.0633 45.4473 54.0633C46.6638 54.0633 47.0378 54.7196 47.0378 55.8331V61.5024H49.922V55.5494C49.922 53.098 48.5336 51.5018 46.2468 51.5018C44.6564 51.5018 43.5001 52.0141 42.6619 53.153C42.4163 52.6321 42.0172 52.1961 41.5166 51.9017C41.016 51.6072 40.4371 51.4678 39.855 51.5018C39.3106 51.466 38.7662 51.5738 38.2781 51.8142C37.7901 52.0546 37.3759 52.4188 37.0782 52.8693V51.7558H33.5879Z" fill="white"/>
<path d="M70.3354 46.3406H69.6949C70.0994 47.0293 70.3142 47.8101 70.3182 48.6057V52.8693C69.768 52.0226 68.7578 51.5018 67.2534 51.5018C64.6743 51.5018 62.5981 53.6653 62.5981 56.6291C62.5981 59.5929 64.6915 61.7564 67.2663 61.7564C68.7707 61.7564 69.7809 61.2441 70.3311 60.3889V61.5024H73.2239V46.3406H70.3354ZM68.0185 59.2499C66.5398 59.2499 65.5899 58.2253 65.5899 56.6291C65.5899 55.0329 66.5398 54.0083 68.0185 54.0083C69.4972 54.0083 70.3912 55.0329 70.3912 56.6291C70.3912 58.2253 69.4929 59.2499 68.0185 59.2499Z" fill="white"/>
<path d="M77.0025 49.931C77.4858 49.931 77.9494 49.7418 78.2912 49.4052C78.633 49.0685 78.825 48.6119 78.825 48.1358C78.825 47.6597 78.633 47.203 78.2912 46.8664C77.9494 46.5297 77.4858 46.3406 77.0025 46.3406C76.7631 46.3406 76.5261 46.387 76.305 46.4772C76.0839 46.5674 75.883 46.6997 75.7137 46.8664C75.5445 47.0331 75.4103 47.231 75.3187 47.4488C75.2271 47.6666 75.1799 47.9 75.1799 48.1358C75.1799 48.3715 75.2271 48.605 75.3187 48.8228C75.4103 49.0406 75.5445 49.2385 75.7137 49.4052C75.883 49.5719 76.0839 49.7041 76.305 49.7943C76.5261 49.8845 76.7631 49.931 77.0025 49.931Z" fill="white"/>
<path d="M75.571 51.7558H74.9478C75.3418 52.4255 75.5549 53.1836 75.5667 53.9575V61.5024H78.4596V51.7643L75.571 51.7558Z" fill="white"/>
<path d="M92.1802 46.3406H91.5569C91.945 46.9989 92.1579 47.7431 92.1759 48.5041V61.5024H95.0558V46.3406H92.1802Z" fill="white"/>
<path d="M115.027 51.5018C113.638 51.5018 112.572 51.9591 111.932 53.0091V51.7389H108.416C108.823 52.428 109.038 53.2109 109.039 54.0083V61.5024H111.927V56.2608C111.927 54.8043 112.71 54.0633 114.098 54.0633C115.284 54.0633 115.86 54.7196 115.86 55.8035V61.5024H118.758V55.6045C118.758 53.0091 117.223 51.5018 115.022 51.5018" fill="white"/>
<path d="M126.435 51.7558C126.839 52.44 127.054 53.2167 127.058 54.0083V57.0568C127.058 58.5387 126.508 59.2796 125.175 59.2796C123.843 59.2796 123.297 58.5387 123.297 57.0568V51.7558H119.781C120.187 52.4396 120.407 53.2158 120.417 54.0083V57.1414C120.417 60.0459 122.003 61.7565 125.072 61.7565C128.141 61.7565 129.959 60.0629 129.959 57.1414V51.7558H126.435Z" fill="white"/>
<path d="M131.644 51.7558C132.047 52.4406 132.26 53.2171 132.263 54.0083V61.5024H135.156V56.2565C135.156 54.8043 135.792 54.0633 137.095 54.0633C138.307 54.0633 138.685 54.7196 138.685 55.8331V61.5024H141.578V56.2565C141.578 54.8043 142.21 54.0633 143.512 54.0633C144.729 54.0633 145.103 54.7196 145.103 55.8331V61.5024H147.996V55.5495C147.996 53.098 146.607 51.5018 144.325 51.5018C142.73 51.5018 141.578 52.0141 140.736 53.153C140.491 52.6325 140.092 52.1967 139.593 51.9022C139.093 51.6077 138.515 51.4682 137.933 51.5018C137.388 51.4651 136.844 51.5726 136.356 51.813C135.867 52.0535 135.453 52.4182 135.156 52.8694V51.7558H131.64H131.644Z" fill="white"/>
</g>
<path d="M0.761719 17.3945C0.761719 15.8906 1.05469 14.46 1.64062 13.1025C2.23633 11.7451 3.03223 10.583 4.02832 9.61621C5.03418 8.63965 6.23535 7.86816 7.63184 7.30176C9.03809 6.72559 10.5176 6.4375 12.0703 6.4375C13.6035 6.4375 15.0586 6.7207 16.4355 7.28711C17.8125 7.85352 18.9893 8.58105 19.9658 9.46973L17.373 13.4688C17.1191 12.6289 16.5967 11.9258 15.8057 11.3594C14.7217 10.6074 13.4766 10.2314 12.0703 10.2314C10.0098 10.2314 8.27637 10.915 6.87012 12.2822C5.46387 13.6494 4.76074 15.3535 4.76074 17.3945C4.76074 19.4062 5.46387 21.1104 6.87012 22.5068C8.28613 23.9033 10.0195 24.6016 12.0703 24.6016C14.375 24.6016 16.3525 23.6543 18.0029 21.7598L20.4053 25.0996C19.3604 26.1445 18.1299 26.9551 16.7139 27.5312C15.2979 28.1074 13.75 28.3955 12.0703 28.3955C10.5176 28.3955 9.03809 28.1123 7.63184 27.5459C6.23535 26.9697 5.03418 26.1934 4.02832 25.2168C3.03223 24.2402 2.23633 23.0732 1.64062 21.7158C1.05469 20.3486 0.761719 18.9082 0.761719 17.3945ZM22.1045 23.7227C21.6846 22.7559 21.4746 21.7354 21.4746 20.6611C21.4746 19.5869 21.6846 18.5713 22.1045 17.6143C22.5342 16.6475 23.1055 15.8223 23.8184 15.1387C24.5312 14.4551 25.3662 13.918 26.3232 13.5273C27.29 13.127 28.2959 12.9268 29.3408 12.9268C30.3857 12.9268 31.3867 13.127 32.3438 13.5273C33.3105 13.918 34.1504 14.4551 34.8633 15.1387C35.5762 15.8223 36.1426 16.6475 36.5625 17.6143C36.9922 18.5713 37.207 19.5869 37.207 20.6611C37.207 21.7354 36.9922 22.7559 36.5625 23.7227C36.1426 24.6797 35.5762 25.5 34.8633 26.1836C34.1504 26.8672 33.3105 27.4092 32.3438 27.8096C31.3867 28.2002 30.3857 28.3955 29.3408 28.3955C28.2959 28.3955 27.29 28.2002 26.3232 27.8096C25.3662 27.4092 24.5312 26.8672 23.8184 26.1836C23.1055 25.5 22.5342 24.6797 22.1045 23.7227ZM26.3965 17.5703C25.6055 18.3906 25.21 19.4209 25.21 20.6611C25.21 21.9014 25.6055 22.9365 26.3965 23.7666C27.1973 24.5869 28.1787 24.9971 29.3408 24.9971C30.5029 24.9971 31.4795 24.5869 32.2705 23.7666C33.0713 22.9365 33.4717 21.9014 33.4717 20.6611C33.4717 19.4209 33.0713 18.3906 32.2705 17.5703C31.4795 16.75 30.5029 16.3398 29.3408 16.3398C28.1787 16.3398 27.1973 16.75 26.3965 17.5703ZM38.042 25.4072L40.2393 23.2393C40.708 23.835 41.2842 24.3184 41.9678 24.6895C42.6611 25.0508 43.3301 25.2314 43.9746 25.2314C44.4336 25.2314 44.8291 25.1289 45.1611 24.9238C45.5029 24.709 45.6738 24.4355 45.6738 24.1035C45.6738 23.8691 45.5908 23.6592 45.4248 23.4736C45.2588 23.2783 44.8633 22.9756 44.2383 22.5654L41.4111 20.7051C40.5029 20.1094 39.8682 19.5234 39.5068 18.9473C39.1455 18.3711 38.9648 17.7461 38.9648 17.0723C38.9648 15.8516 39.4629 14.8555 40.459 14.084C41.4551 13.3125 42.583 12.9268 43.8428 12.9268C44.7119 12.9268 45.6055 13.1367 46.5234 13.5566C47.4414 13.9668 48.1787 14.5381 48.7354 15.2705L46.6992 17.3359C45.8496 16.3984 44.917 15.9297 43.9014 15.9297C43.5303 15.9297 43.1982 16.0371 42.9053 16.252C42.6123 16.4668 42.4658 16.7158 42.4658 16.999C42.4658 17.1748 42.5391 17.3457 42.6855 17.5117C42.8418 17.6777 43.1348 17.9072 43.5645 18.2002L46.9336 20.4707C48.4277 21.4863 49.1748 22.707 49.1748 24.1328C49.1748 24.8457 49.0234 25.4854 48.7207 26.0518C48.418 26.6084 48.0176 27.0527 47.5195 27.3848C47.0215 27.7168 46.4697 27.9658 45.8643 28.1318C45.2588 28.3076 44.6289 28.3955 43.9746 28.3955C42.8809 28.3955 41.8115 28.1514 40.7666 27.6631C39.7314 27.1748 38.8232 26.4229 38.042 25.4072ZM49.9658 16.5303V13.3369H52.8076V8.50293H56.4111V13.3369H59.9707V16.5303H56.4111V28H52.8076V16.5303H49.9658ZM60.8789 13.3369H65.4785V15.0068C65.8105 14.4307 66.3574 13.9424 67.1191 13.542C67.8809 13.1318 68.623 12.9268 69.3457 12.9268C70.5273 12.9268 71.5479 13.2637 72.4072 13.9375L70.7812 16.9404C70.3027 16.54 69.6924 16.3398 68.9502 16.3398C67.9932 16.3398 67.1729 16.6963 66.4893 17.4092C65.8154 18.1221 65.4785 19.2061 65.4785 20.6611V28H61.875V16.4277C61.875 15.3242 61.543 14.2939 60.8789 13.3369ZM73.0078 13.3369H77.6074V21.4961C77.6074 22.1309 77.7197 22.6875 77.9443 23.166C78.1689 23.6348 78.4668 23.9961 78.8379 24.25C79.209 24.5039 79.5947 24.6943 79.9951 24.8213C80.3955 24.9385 80.8105 24.9971 81.2402 24.9971C82.0312 24.9971 82.793 24.6797 83.5254 24.0449C84.2676 23.4102 84.6387 22.5605 84.6387 21.4961V16.4277C84.6387 15.3242 84.3066 14.2939 83.6426 13.3369H88.2422V28H84.6387V26.3301C84.3066 26.916 83.7109 27.4092 82.8516 27.8096C82.002 28.2002 81.167 28.3955 80.3467 28.3955C76.1182 28.3955 74.0039 26.0957 74.0039 21.4961V16.4277C74.0039 15.3242 73.6719 14.2939 73.0078 13.3369ZM90.6738 13.3369H95.2734V28H91.6699V16.4277C91.6699 15.3242 91.3379 14.2939 90.6738 13.3369ZM91.0693 8.42969C91.0693 7.77539 91.3037 7.22363 91.7725 6.77441C92.2412 6.3252 92.8076 6.10059 93.4717 6.10059C94.1357 6.10059 94.7021 6.3252 95.1709 6.77441C95.6396 7.22363 95.874 7.77539 95.874 8.42969C95.874 9.11328 95.6396 9.69922 95.1709 10.1875C94.7021 10.666 94.1357 10.9053 93.4717 10.9053C92.8076 10.9053 92.2412 10.666 91.7725 10.1875C91.3037 9.69922 91.0693 9.11328 91.0693 8.42969ZM97.7344 13.3369H102.334V15.0068C102.666 14.4307 103.213 13.9424 103.975 13.542C104.736 13.1318 105.479 12.9268 106.201 12.9268C107.383 12.9268 108.403 13.2637 109.263 13.9375L107.637 16.9404C107.158 16.54 106.548 16.3398 105.806 16.3398C104.849 16.3398 104.028 16.6963 103.345 17.4092C102.671 18.1221 102.334 19.2061 102.334 20.6611V28H98.7305V16.4277C98.7305 15.3242 98.3984 14.2939 97.7344 13.3369ZM109.526 23.4004C109.224 22.5508 109.072 21.6377 109.072 20.6611C109.072 19.6846 109.224 18.7764 109.526 17.9365C109.829 17.0869 110.229 16.3643 110.728 15.7686C111.235 15.1631 111.812 14.6455 112.456 14.2158C113.11 13.7764 113.784 13.4541 114.478 13.249C115.181 13.0342 115.879 12.9268 116.572 12.9268C118.77 12.9268 120.571 13.625 121.978 15.0215C123.394 16.418 124.102 18.2783 124.102 20.6025C124.102 21.042 124.067 21.3984 123.999 21.6719H112.632C112.769 22.6484 113.242 23.459 114.053 24.1035C114.873 24.748 115.879 25.0703 117.07 25.0703C117.754 25.0703 118.398 24.9434 119.004 24.6895C119.619 24.4355 120.273 23.9619 120.967 23.2686L123.369 25.0996C122.412 26.3496 121.401 27.2139 120.337 27.6924C119.282 28.1611 118.125 28.3955 116.865 28.3955C116.133 28.3955 115.4 28.2881 114.668 28.0732C113.936 27.8682 113.232 27.5508 112.559 27.1211C111.895 26.6816 111.299 26.1641 110.771 25.5684C110.254 24.9629 109.839 24.2402 109.526 23.4004ZM112.808 18.9326H120.674C120.566 18.2295 120.127 17.5947 119.355 17.0283C118.594 16.4521 117.686 16.1641 116.631 16.1641C115.762 16.1641 114.951 16.4375 114.199 16.9844C113.457 17.5215 112.993 18.1709 112.808 18.9326ZM134.062 24.1328L137.007 21.9941C137.681 22.9023 138.481 23.5762 139.409 24.0156C140.347 24.4453 141.187 24.6602 141.929 24.6602C142.759 24.6602 143.438 24.4453 143.965 24.0156C144.502 23.5762 144.771 23.0146 144.771 22.3311C144.771 21.335 144.048 20.3779 142.603 19.46L139.6 17.4971C138.223 16.5889 137.246 15.6953 136.67 14.8164C136.094 13.9375 135.806 13.0195 135.806 12.0625C135.806 10.959 136.084 9.97754 136.641 9.11816C137.207 8.24902 137.954 7.58496 138.882 7.12598C139.81 6.66699 140.825 6.4375 141.929 6.4375C144.165 6.4375 146.143 7.49219 147.861 9.60156L144.829 12.502C144.79 12.1699 144.644 11.8232 144.39 11.4619C144.146 11.0908 143.838 10.793 143.467 10.5684C143.018 10.3047 142.505 10.1729 141.929 10.1729C141.294 10.1729 140.781 10.3633 140.391 10.7441C140 11.125 139.805 11.5645 139.805 12.0625C139.805 12.3848 139.912 12.6924 140.127 12.9854C140.342 13.2783 140.742 13.6299 141.328 14.04L144.639 16.3398C146.152 17.3945 147.217 18.3857 147.832 19.3135C148.457 20.2412 148.77 21.2471 148.77 22.3311C148.77 24.04 148.12 25.4805 146.821 26.6523C145.532 27.8145 143.901 28.3955 141.929 28.3955C141.333 28.3955 140.718 28.3271 140.083 28.1904C139.458 28.0537 138.794 27.834 138.091 27.5312C137.388 27.2188 136.685 26.7744 135.981 26.1982C135.278 25.6123 134.639 24.9238 134.062 24.1328ZM151.538 24.499C150.942 23.3271 150.645 22.0479 150.645 20.6611C150.645 19.2744 150.942 18 151.538 16.8379C152.134 15.666 152.993 14.7236 154.116 14.0107C155.249 13.2881 156.533 12.9268 157.969 12.9268C158.936 12.9268 159.883 13.1465 160.811 13.5859C161.748 14.0254 162.49 14.6064 163.037 15.3291V13.3369H166.641V28H163.037V25.9932C162.783 26.5889 162.173 27.1406 161.206 27.6484C160.239 28.1465 159.16 28.3955 157.969 28.3955C156.533 28.3955 155.249 28.0391 154.116 27.3262C152.993 26.6035 152.134 25.6611 151.538 24.499ZM155.698 17.5557C154.819 18.3564 154.38 19.3916 154.38 20.6611C154.38 21.9307 154.814 22.9707 155.684 23.7812C156.562 24.5918 157.583 24.9971 158.745 24.9971C159.858 24.9971 160.85 24.5918 161.719 23.7812C162.598 22.9707 163.037 21.9307 163.037 20.6611C163.037 19.3916 162.598 18.3564 161.719 17.5557C160.84 16.7451 159.849 16.3398 158.745 16.3398C157.593 16.3398 156.577 16.7451 155.698 17.5557ZM169.175 6.49609H173.774V28H170.171V9.60156C170.171 8.48828 169.839 7.45312 169.175 6.49609ZM176.309 13.3369H180.908V21.4961C180.908 22.1309 181.021 22.6875 181.245 23.166C181.47 23.6348 181.768 23.9961 182.139 24.25C182.51 24.5039 182.896 24.6943 183.296 24.8213C183.696 24.9385 184.111 24.9971 184.541 24.9971C185.332 24.9971 186.094 24.6797 186.826 24.0449C187.568 23.4102 187.939 22.5605 187.939 21.4961V16.4277C187.939 15.3242 187.607 14.2939 186.943 13.3369H191.543V28H187.939V26.3301C187.607 26.916 187.012 27.4092 186.152 27.8096C185.303 28.2002 184.468 28.3955 183.647 28.3955C179.419 28.3955 177.305 26.0957 177.305 21.4961V16.4277C177.305 15.3242 176.973 14.2939 176.309 13.3369ZM193.403 16.5303V13.3369H196.245V8.50293H199.849V13.3369H203.408V16.5303H199.849V28H196.245V16.5303H193.403ZM204.302 23.4004C203.999 22.5508 203.848 21.6377 203.848 20.6611C203.848 19.6846 203.999 18.7764 204.302 17.9365C204.604 17.0869 205.005 16.3643 205.503 15.7686C206.011 15.1631 206.587 14.6455 207.231 14.2158C207.886 13.7764 208.56 13.4541 209.253 13.249C209.956 13.0342 210.654 12.9268 211.348 12.9268C213.545 12.9268 215.347 13.625 216.753 15.0215C218.169 16.418 218.877 18.2783 218.877 20.6025C218.877 21.042 218.843 21.3984 218.774 21.6719H207.407C207.544 22.6484 208.018 23.459 208.828 24.1035C209.648 24.748 210.654 25.0703 211.846 25.0703C212.529 25.0703 213.174 24.9434 213.779 24.6895C214.395 24.4355 215.049 23.9619 215.742 23.2686L218.145 25.0996C217.188 26.3496 216.177 27.2139 215.112 27.6924C214.058 28.1611 212.9 28.3955 211.641 28.3955C210.908 28.3955 210.176 28.2881 209.443 28.0732C208.711 27.8682 208.008 27.5508 207.334 27.1211C206.67 26.6816 206.074 26.1641 205.547 25.5684C205.029 24.9629 204.614 24.2402 204.302 23.4004ZM207.583 18.9326H215.449C215.342 18.2295 214.902 17.5947 214.131 17.0283C213.369 16.4521 212.461 16.1641 211.406 16.1641C210.537 16.1641 209.727 16.4375 208.975 16.9844C208.232 17.5215 207.769 18.1709 207.583 18.9326Z" fill="white"/>
<path d="M0.389648 46.9648H2.53613V51.0117C2.82324 50.6745 3.17643 50.417 3.5957 50.2393C4.01497 50.057 4.4502 49.9658 4.90137 49.9658C5.40267 49.9658 5.86751 50.0706 6.2959 50.2803C6.72428 50.4899 7.07747 50.7656 7.35547 51.1074C7.63802 51.4492 7.85905 51.8343 8.01855 52.2627C8.17806 52.6911 8.25781 53.1286 8.25781 53.5752C8.25781 54.0218 8.17806 54.4593 8.01855 54.8877C7.85905 55.3161 7.63802 55.7012 7.35547 56.043C7.07747 56.3848 6.72428 56.6605 6.2959 56.8701C5.86751 57.0798 5.40267 57.1846 4.90137 57.1846C4.41374 57.1846 3.94661 57.0798 3.5 56.8701C3.05794 56.6605 2.73665 56.4189 2.53613 56.1455V57H0.854492V48.4141C0.854492 47.8945 0.699544 47.4115 0.389648 46.9648ZM2.53613 53.5752C2.53613 54.1585 2.74577 54.6416 3.16504 55.0244C3.58887 55.4072 4.03776 55.5986 4.51172 55.5986C5.07227 55.5986 5.54622 55.4118 5.93359 55.0381C6.32096 54.6644 6.51465 54.1768 6.51465 53.5752C6.51465 52.9782 6.31868 52.4928 5.92676 52.1191C5.53939 51.7454 5.06771 51.5586 4.51172 51.5586C4.21549 51.5586 3.91927 51.6383 3.62305 51.7979C3.32682 51.9528 3.07161 52.1898 2.85742 52.5088C2.64323 52.8278 2.53613 53.1833 2.53613 53.5752ZM7.92969 50.1572H10.1104L12.0176 54.5732L13.3711 51.4287C13.4987 51.137 13.5625 50.8796 13.5625 50.6562C13.5625 50.4648 13.5146 50.2985 13.4189 50.1572H15.7227L11.3955 60.1104H9.61133L11.1631 56.4873L8.81836 51.4014C8.53581 50.7861 8.23958 50.3714 7.92969 50.1572Z" fill="white"/>
<defs>
<clipPath id="clip0">
<rect width="120" height="27" fill="white" transform="translate(28 43)"/>
</clipPath>
</defs>
</svg>
