<svg width="91" height="91" viewBox="0 0 91 91" fill="none" xmlns="http://www.w3.org/2000/svg">
<path d="M79.9299 63.7C73.3629 75.9897 60.4165 84.433 45.5 84.433C24.0165 84.433 6.56701 66.9835 6.56701 45.5C6.56701 24.0165 24.0165 6.56701 45.5 6.56701C66.9835 6.56701 84.433 24.0165 84.433 45.5C84.433 49.3464 83.8701 53.099 82.8382 56.5701C84.6206 57.9773 86.5907 59.1969 88.5608 60.3227C90.1557 55.632 91 50.6598 91 45.5C91 20.3577 70.6423 0 45.5 0C20.3577 0 0 20.3577 0 45.5C0 70.6423 20.3577 91 45.5 91C62.8557 91 77.866 81.3371 85.5588 67.0773C83.5887 66.1392 81.7124 64.9196 79.9299 63.7Z" fill="white"/>
<path d="M18.6692 30.2082C19.9826 32.4598 20.7331 35.0866 20.7331 37.8072V63.0433H30.3022V45.3123C30.3022 40.434 32.3661 37.901 36.7754 37.901C40.8094 37.901 42.029 40.1526 42.029 43.8113V62.9495H51.598V45.3123C51.598 40.434 53.7558 37.901 58.0712 37.901C62.1053 37.901 63.3249 40.1526 63.3249 43.8113V62.9495H72.8939V42.967C72.8939 34.7113 68.297 29.3639 60.698 29.3639C55.4444 29.3639 51.598 31.0526 48.7836 34.8989C47.0011 31.2402 43.9053 29.3639 39.496 29.3639C35.462 29.3639 32.2723 30.7711 30.3022 33.9608V30.2082H20.7331H18.6692Z" fill="white"/>
</svg>
