<svg width="170" height="44" viewBox="0 0 170 44" fill="none" xmlns="http://www.w3.org/2000/svg">
<path d="M30.5605 31.1213C30.3423 31.3278 30.2197 31.6079 30.2197 31.9001C30.2197 32.1922 30.3423 32.4723 30.5605 32.6789C30.7788 32.8854 31.0748 33.0014 31.3835 33.0014C31.6921 33.0014 31.9882 32.8854 32.2064 32.6789L41.5052 23.8789C41.6134 23.7767 41.6993 23.6553 41.7579 23.5216C41.8165 23.388 41.8467 23.2447 41.8467 23.1001C41.8467 22.9554 41.8165 22.8121 41.7579 22.6785C41.6993 22.5448 41.6134 22.4234 41.5052 22.3213L32.2064 13.5213C32.0983 13.419 31.97 13.3379 31.8288 13.2825C31.6876 13.2272 31.5363 13.1987 31.3835 13.1987C31.2306 13.1987 31.0793 13.2272 30.9381 13.2825C30.7969 13.3379 30.6686 13.419 30.5605 13.5213C30.4525 13.6235 30.3667 13.7449 30.3082 13.8786C30.2498 14.0122 30.2197 14.1554 30.2197 14.3001C30.2197 14.4447 30.2498 14.5879 30.3082 14.7215C30.3667 14.8552 30.4525 14.9766 30.5605 15.0789L37.8763 22.0001L23.247 22.0001C18.679 22.0001 15.3896 21.4567 12.8487 20.3193C10.338 19.1929 8.46196 17.4417 6.8091 14.8347C6.65065 14.5843 6.39362 14.4039 6.09454 14.3329C5.79547 14.2619 5.47886 14.3063 5.21436 14.4563C4.94986 14.6062 4.75914 14.8495 4.68416 15.1325C4.60917 15.4155 4.65606 15.7151 4.81451 15.9655C6.65102 18.8585 8.84089 20.9573 11.8514 22.3059C14.834 23.6435 18.5163 24.2001 23.247 24.2001L37.8763 24.2001L30.5605 31.1213Z" fill="#E1A12D"/>
<path d="M62.4608 29.18C61.5968 29.18 60.8288 29.072 60.1568 28.856C59.4848 28.64 58.8548 28.274 58.2668 27.758C57.9428 27.47 57.7808 27.152 57.7808 26.804C57.7808 26.528 57.8828 26.288 58.0868 26.084C58.2908 25.868 58.5368 25.76 58.8248 25.76C59.0528 25.76 59.2568 25.832 59.4368 25.976C59.9168 26.372 60.3848 26.66 60.8408 26.84C61.2968 27.02 61.8368 27.11 62.4608 27.11C63.1328 27.11 63.7088 26.96 64.1888 26.66C64.6808 26.36 64.9268 25.988 64.9268 25.544C64.9268 25.004 64.6868 24.584 64.2068 24.284C63.7268 23.972 62.9648 23.738 61.9208 23.582C59.2928 23.198 57.9788 21.974 57.9788 19.91C57.9788 19.154 58.1768 18.5 58.5728 17.948C58.9688 17.384 59.5088 16.958 60.1928 16.67C60.8768 16.37 61.6388 16.22 62.4788 16.22C63.2348 16.22 63.9428 16.334 64.6028 16.562C65.2748 16.79 65.8328 17.09 66.2768 17.462C66.6248 17.738 66.7988 18.056 66.7988 18.416C66.7988 18.692 66.6968 18.938 66.4928 19.154C66.2888 19.358 66.0488 19.46 65.7728 19.46C65.5928 19.46 65.4308 19.406 65.2868 19.298C64.9748 19.046 64.5368 18.818 63.9728 18.614C63.4208 18.398 62.9228 18.29 62.4788 18.29C61.7228 18.29 61.1348 18.434 60.7148 18.722C60.3068 18.998 60.1028 19.364 60.1028 19.82C60.1028 20.336 60.3128 20.726 60.7328 20.99C61.1648 21.254 61.8368 21.47 62.7488 21.638C63.7808 21.818 64.6028 22.052 65.2148 22.34C65.8388 22.616 66.3068 23 66.6188 23.492C66.9308 23.972 67.0868 24.614 67.0868 25.418C67.0868 26.174 66.8708 26.84 66.4388 27.416C66.0188 27.98 65.4548 28.418 64.7468 28.73C64.0388 29.03 63.2768 29.18 62.4608 29.18ZM73.165 19.19C74.185 19.19 75.007 19.352 75.631 19.676C76.255 19.988 76.567 20.408 76.567 20.936C76.567 21.2 76.489 21.434 76.333 21.638C76.177 21.83 75.973 21.926 75.721 21.926C75.529 21.926 75.373 21.902 75.253 21.854C75.133 21.794 75.013 21.722 74.893 21.638C74.785 21.542 74.677 21.464 74.569 21.404C74.449 21.344 74.269 21.29 74.029 21.242C73.801 21.194 73.615 21.17 73.471 21.17C72.571 21.17 71.863 21.452 71.347 22.016C70.843 22.568 70.591 23.294 70.591 24.194C70.591 25.058 70.849 25.778 71.365 26.354C71.881 26.918 72.541 27.2 73.345 27.2C73.933 27.2 74.371 27.128 74.659 26.984C74.731 26.948 74.827 26.888 74.947 26.804C75.079 26.708 75.199 26.636 75.307 26.588C75.415 26.54 75.547 26.516 75.703 26.516C76.003 26.516 76.237 26.612 76.405 26.804C76.585 26.996 76.675 27.242 76.675 27.542C76.675 27.83 76.507 28.1 76.171 28.352C75.835 28.604 75.391 28.808 74.839 28.964C74.287 29.108 73.699 29.18 73.075 29.18C72.151 29.18 71.335 28.964 70.627 28.532C69.931 28.1 69.391 27.506 69.007 26.75C68.623 25.982 68.431 25.13 68.431 24.194C68.431 23.222 68.629 22.358 69.025 21.602C69.433 20.846 69.997 20.258 70.717 19.838C71.437 19.406 72.253 19.19 73.165 19.19ZM87.4867 24.194C87.4867 25.154 87.2707 26.018 86.8387 26.786C86.4067 27.542 85.8127 28.13 85.0567 28.55C84.3127 28.97 83.4907 29.18 82.5907 29.18C81.6787 29.18 80.8507 28.97 80.1067 28.55C79.3627 28.13 78.7747 27.542 78.3427 26.786C77.9107 26.018 77.6947 25.154 77.6947 24.194C77.6947 23.234 77.9107 22.376 78.3427 21.62C78.7747 20.852 79.3627 20.258 80.1067 19.838C80.8507 19.406 81.6787 19.19 82.5907 19.19C83.4907 19.19 84.3127 19.406 85.0567 19.838C85.8127 20.258 86.4067 20.852 86.8387 21.62C87.2707 22.376 87.4867 23.234 87.4867 24.194ZM85.3267 24.194C85.3267 23.606 85.2007 23.084 84.9487 22.628C84.7087 22.16 84.3787 21.8 83.9587 21.548C83.5507 21.296 83.0947 21.17 82.5907 21.17C82.0867 21.17 81.6247 21.296 81.2047 21.548C80.7967 21.8 80.4667 22.16 80.2147 22.628C79.9747 23.084 79.8547 23.606 79.8547 24.194C79.8547 24.782 79.9747 25.304 80.2147 25.76C80.4667 26.216 80.7967 26.57 81.2047 26.822C81.6247 27.074 82.0867 27.2 82.5907 27.2C83.0947 27.2 83.5507 27.074 83.9587 26.822C84.3787 26.57 84.7087 26.216 84.9487 25.76C85.2007 25.304 85.3267 24.782 85.3267 24.194ZM94.2773 19.19C95.1053 19.19 95.8553 19.406 96.5273 19.838C97.1993 20.258 97.7273 20.846 98.1113 21.602C98.5073 22.358 98.7053 23.216 98.7053 24.176C98.7053 25.136 98.5133 26 98.1293 26.768C97.7453 27.524 97.2173 28.118 96.5453 28.55C95.8853 28.97 95.1533 29.18 94.3493 29.18C93.7733 29.18 93.2273 29.066 92.7113 28.838C92.2073 28.598 91.7873 28.31 91.4513 27.974V31.502C91.4513 31.814 91.3493 32.072 91.1453 32.276C90.9413 32.492 90.6833 32.6 90.3713 32.6C90.0593 32.6 89.8013 32.498 89.5973 32.294C89.3933 32.09 89.2913 31.826 89.2913 31.502V20.468C89.2913 20.156 89.3933 19.898 89.5973 19.694C89.8013 19.478 90.0593 19.37 90.3713 19.37C90.6833 19.37 90.9413 19.478 91.1453 19.694C91.3493 19.898 91.4513 20.156 91.4513 20.468V20.54C91.7393 20.18 92.1413 19.868 92.6573 19.604C93.1733 19.328 93.7133 19.19 94.2773 19.19ZM94.0073 27.2C94.7753 27.2 95.4053 26.912 95.8973 26.336C96.3893 25.76 96.6353 25.04 96.6353 24.176C96.6353 23.312 96.3893 22.598 95.8973 22.034C95.4173 21.458 94.7873 21.17 94.0073 21.17C93.2273 21.17 92.5913 21.458 92.0993 22.034C91.6073 22.598 91.3613 23.312 91.3613 24.176C91.3613 25.04 91.6073 25.76 92.0993 26.336C92.5913 26.912 93.2273 27.2 94.0073 27.2ZM105.51 19.19C105.87 19.19 106.17 19.292 106.41 19.496C106.662 19.7 106.788 19.94 106.788 20.216C106.788 20.588 106.692 20.87 106.5 21.062C106.308 21.242 106.08 21.332 105.816 21.332C105.636 21.332 105.432 21.29 105.204 21.206C105.168 21.194 105.084 21.17 104.952 21.134C104.832 21.098 104.7 21.08 104.556 21.08C104.244 21.08 103.944 21.176 103.656 21.368C103.368 21.56 103.128 21.854 102.936 22.25C102.756 22.634 102.666 23.096 102.666 23.636V27.902C102.666 28.214 102.564 28.478 102.36 28.694C102.156 28.898 101.898 29 101.586 29C101.274 29 101.016 28.898 100.812 28.694C100.608 28.478 100.506 28.214 100.506 27.902V20.468C100.506 20.156 100.608 19.898 100.812 19.694C101.016 19.478 101.274 19.37 101.586 19.37C101.898 19.37 102.156 19.478 102.36 19.694C102.564 19.898 102.666 20.156 102.666 20.468V20.702C102.942 20.21 103.338 19.838 103.854 19.586C104.37 19.322 104.922 19.19 105.51 19.19ZM110.345 27.902C110.345 28.214 110.243 28.478 110.039 28.694C109.835 28.898 109.577 29 109.265 29C108.953 29 108.695 28.898 108.491 28.694C108.287 28.478 108.185 28.214 108.185 27.902V20.468C108.185 20.156 108.287 19.898 108.491 19.694C108.695 19.478 108.953 19.37 109.265 19.37C109.577 19.37 109.835 19.478 110.039 19.694C110.243 19.898 110.345 20.156 110.345 20.468V27.902ZM109.247 18.2C108.839 18.2 108.551 18.134 108.383 18.002C108.215 17.87 108.131 17.636 108.131 17.3V16.958C108.131 16.622 108.221 16.388 108.401 16.256C108.581 16.124 108.869 16.058 109.265 16.058C109.685 16.058 109.979 16.124 110.147 16.256C110.315 16.388 110.399 16.622 110.399 16.958V17.3C110.399 17.648 110.309 17.888 110.129 18.02C109.961 18.14 109.667 18.2 109.247 18.2ZM125.404 15.68C125.716 15.68 125.974 15.782 126.178 15.986C126.382 16.19 126.484 16.454 126.484 16.778V27.902C126.484 28.214 126.382 28.478 126.178 28.694C125.974 28.898 125.716 29 125.404 29C125.092 29 124.834 28.898 124.63 28.694C124.438 28.49 124.336 28.232 124.324 27.92C124.024 28.268 123.616 28.568 123.1 28.82C122.596 29.06 122.062 29.18 121.498 29.18C120.67 29.18 119.92 28.97 119.248 28.55C118.576 28.118 118.042 27.524 117.646 26.768C117.262 26.012 117.07 25.154 117.07 24.194C117.07 23.234 117.262 22.376 117.646 21.62C118.03 20.852 118.552 20.258 119.212 19.838C119.884 19.406 120.622 19.19 121.426 19.19C122.002 19.19 122.542 19.298 123.046 19.514C123.55 19.718 123.976 19.982 124.324 20.306V16.778C124.324 16.466 124.426 16.208 124.63 16.004C124.834 15.788 125.092 15.68 125.404 15.68ZM121.768 27.2C122.548 27.2 123.184 26.918 123.676 26.354C124.168 25.778 124.414 25.058 124.414 24.194C124.414 23.33 124.168 22.61 123.676 22.034C123.184 21.458 122.548 21.17 121.768 21.17C121 21.17 120.37 21.458 119.878 22.034C119.386 22.61 119.14 23.33 119.14 24.194C119.14 25.058 119.38 25.778 119.86 26.354C120.352 26.918 120.988 27.2 121.768 27.2ZM130.859 27.902C130.859 28.214 130.757 28.478 130.553 28.694C130.349 28.898 130.091 29 129.779 29C129.467 29 129.209 28.898 129.005 28.694C128.801 28.478 128.699 28.214 128.699 27.902V20.468C128.699 20.156 128.801 19.898 129.005 19.694C129.209 19.478 129.467 19.37 129.779 19.37C130.091 19.37 130.349 19.478 130.553 19.694C130.757 19.898 130.859 20.156 130.859 20.468V27.902ZM129.761 18.2C129.353 18.2 129.065 18.134 128.897 18.002C128.729 17.87 128.645 17.636 128.645 17.3V16.958C128.645 16.622 128.735 16.388 128.915 16.256C129.095 16.124 129.383 16.058 129.779 16.058C130.199 16.058 130.493 16.124 130.661 16.256C130.829 16.388 130.913 16.622 130.913 16.958V17.3C130.913 17.648 130.823 17.888 130.643 18.02C130.475 18.14 130.181 18.2 129.761 18.2ZM143.109 19.19C143.937 19.19 144.687 19.406 145.359 19.838C146.031 20.258 146.559 20.846 146.943 21.602C147.339 22.358 147.537 23.216 147.537 24.176C147.537 25.136 147.345 26 146.961 26.768C146.577 27.524 146.049 28.118 145.377 28.55C144.717 28.97 143.985 29.18 143.181 29.18C142.605 29.18 142.059 29.066 141.543 28.838C141.039 28.598 140.619 28.31 140.283 27.974V31.502C140.283 31.814 140.181 32.072 139.977 32.276C139.773 32.492 139.515 32.6 139.203 32.6C138.891 32.6 138.633 32.498 138.429 32.294C138.225 32.09 138.123 31.826 138.123 31.502V20.468C138.123 20.156 138.225 19.898 138.429 19.694C138.633 19.478 138.891 19.37 139.203 19.37C139.515 19.37 139.773 19.478 139.977 19.694C140.181 19.898 140.283 20.156 140.283 20.468V20.54C140.571 20.18 140.973 19.868 141.489 19.604C142.005 19.328 142.545 19.19 143.109 19.19ZM142.839 27.2C143.607 27.2 144.237 26.912 144.729 26.336C145.221 25.76 145.467 25.04 145.467 24.176C145.467 23.312 145.221 22.598 144.729 22.034C144.249 21.458 143.619 21.17 142.839 21.17C142.059 21.17 141.423 21.458 140.931 22.034C140.439 22.598 140.193 23.312 140.193 24.176C140.193 25.04 140.439 25.76 140.931 26.336C141.423 26.912 142.059 27.2 142.839 27.2ZM151.372 27.902C151.372 28.214 151.27 28.478 151.066 28.694C150.862 28.898 150.604 29 150.292 29C149.98 29 149.722 28.898 149.518 28.694C149.314 28.478 149.212 28.214 149.212 27.902V20.468C149.212 20.156 149.314 19.898 149.518 19.694C149.722 19.478 149.98 19.37 150.292 19.37C150.604 19.37 150.862 19.478 151.066 19.694C151.27 19.898 151.372 20.156 151.372 20.468V27.902ZM150.274 18.2C149.866 18.2 149.578 18.134 149.41 18.002C149.242 17.87 149.158 17.636 149.158 17.3V16.958C149.158 16.622 149.248 16.388 149.428 16.256C149.608 16.124 149.896 16.058 150.292 16.058C150.712 16.058 151.006 16.124 151.174 16.256C151.342 16.388 151.426 16.622 151.426 16.958V17.3C151.426 17.648 151.336 17.888 151.156 18.02C150.988 18.14 150.694 18.2 150.274 18.2ZM160.738 19.37C161.05 19.37 161.308 19.478 161.512 19.694C161.716 19.898 161.818 20.156 161.818 20.468V25.04C161.818 26.336 161.458 27.35 160.738 28.082C160.03 28.814 159.016 29.18 157.696 29.18C156.376 29.18 155.362 28.814 154.654 28.082C153.946 27.35 153.592 26.336 153.592 25.04V20.468C153.592 20.156 153.694 19.898 153.898 19.694C154.102 19.478 154.36 19.37 154.672 19.37C154.984 19.37 155.242 19.478 155.446 19.694C155.65 19.898 155.752 20.156 155.752 20.468V25.04C155.752 25.772 155.914 26.318 156.238 26.678C156.562 27.026 157.048 27.2 157.696 27.2C158.356 27.2 158.848 27.026 159.172 26.678C159.496 26.318 159.658 25.772 159.658 25.04V20.468C159.658 20.156 159.76 19.898 159.964 19.694C160.168 19.478 160.426 19.37 160.738 19.37ZM157.768 18.74C157.636 18.74 157.498 18.704 157.354 18.632L155.554 17.678C155.338 17.558 155.17 17.414 155.05 17.246C154.942 17.078 154.888 16.904 154.888 16.724C154.888 16.472 154.99 16.262 155.194 16.094C155.398 15.926 155.614 15.842 155.842 15.842C156.118 15.842 156.412 15.974 156.724 16.238L158.272 17.606C158.44 17.762 158.524 17.924 158.524 18.092C158.524 18.284 158.452 18.44 158.308 18.56C158.176 18.68 157.996 18.74 157.768 18.74Z" fill="#E1A12D"/>
</svg>
