<svg width="194" height="44" viewBox="0 0 194 44" fill="none" xmlns="http://www.w3.org/2000/svg">
<path d="M31.8605 28.9212C32.0668 28.7147 32.3467 28.5986 32.6386 28.5986C32.9304 28.5986 33.2103 28.7147 33.4167 28.9212C33.6231 29.1278 33.739 29.4079 33.739 29.7C33.739 29.9921 33.6231 30.2723 33.4167 30.4788L24.6244 39.2788C24.5223 39.3813 24.4011 39.4626 24.2675 39.518C24.134 39.5735 23.9909 39.602 23.8463 39.602C23.7017 39.602 23.5586 39.5735 23.4251 39.518C23.2916 39.4626 23.1703 39.3813 23.0682 39.2788L14.2759 30.4788C14.1737 30.3766 14.0927 30.2552 14.0374 30.1215C13.9821 29.9879 13.9536 29.8447 13.9536 29.7C13.9536 29.5554 13.9821 29.4122 14.0374 29.2786C14.0927 29.1449 14.1737 29.0235 14.2759 28.9212C14.3781 28.819 14.4994 28.7378 14.6329 28.6825C14.7664 28.6271 14.9095 28.5986 15.054 28.5986C15.1985 28.5986 15.3416 28.6271 15.4751 28.6825C15.6087 28.7378 15.73 28.819 15.8322 28.9212L22.7473 35.8446L22.7473 22C22.7473 17.677 22.2043 14.564 21.0679 12.1594C19.9425 9.78344 18.1929 8.00804 15.5882 6.44384C15.3381 6.29389 15.1577 6.05064 15.0868 5.76761C15.0159 5.48458 15.0603 5.18495 15.2101 4.93464C15.3599 4.68433 15.603 4.50384 15.8857 4.43288C16.1685 4.36191 16.4679 4.40629 16.718 4.55624C19.6084 6.29424 21.7054 8.36664 23.0528 11.2156C24.3892 14.0382 24.9453 17.523 24.9453 22L24.9453 35.8446L31.8605 28.9212Z" fill="#E1A12D"/>
<path d="M58.319 18.47V21.638H62.207C62.519 21.638 62.777 21.74 62.981 21.944C63.197 22.136 63.305 22.388 63.305 22.7C63.305 22.964 63.197 23.198 62.981 23.402C62.777 23.606 62.519 23.708 62.207 23.708H58.319V27.902C58.319 28.214 58.205 28.478 57.977 28.694C57.761 28.898 57.503 29 57.203 29C56.867 29 56.591 28.898 56.375 28.694C56.171 28.49 56.069 28.226 56.069 27.902V17.498C56.069 17.186 56.171 16.928 56.375 16.724C56.591 16.508 56.855 16.4 57.167 16.4H63.017C63.329 16.4 63.587 16.502 63.791 16.706C64.007 16.898 64.115 17.15 64.115 17.462C64.115 17.726 64.007 17.96 63.791 18.164C63.587 18.368 63.329 18.47 63.017 18.47H58.319ZM73.4389 19.19C73.7509 19.19 74.0089 19.292 74.2129 19.496C74.4169 19.7 74.5189 19.964 74.5189 20.288V27.902C74.5189 28.214 74.4169 28.478 74.2129 28.694C74.0089 28.898 73.7509 29 73.4389 29C73.1269 29 72.8689 28.898 72.6649 28.694C72.4729 28.49 72.3709 28.232 72.3589 27.92C72.0589 28.268 71.6509 28.568 71.1349 28.82C70.6309 29.06 70.0969 29.18 69.5329 29.18C68.7049 29.18 67.9549 28.97 67.2829 28.55C66.6109 28.118 66.0769 27.524 65.6809 26.768C65.2969 26.012 65.1049 25.154 65.1049 24.194C65.1049 23.234 65.2969 22.376 65.6809 21.62C66.0649 20.852 66.5869 20.258 67.2469 19.838C67.9189 19.406 68.6569 19.19 69.4609 19.19C70.0369 19.19 70.5769 19.298 71.0809 19.514C71.5849 19.718 72.0109 19.982 72.3589 20.306V20.288C72.3589 19.976 72.4609 19.718 72.6649 19.514C72.8689 19.298 73.1269 19.19 73.4389 19.19ZM69.8029 27.2C70.5829 27.2 71.2189 26.918 71.7109 26.354C72.2029 25.778 72.4489 25.058 72.4489 24.194C72.4489 23.33 72.2029 22.61 71.7109 22.034C71.2189 21.458 70.5829 21.17 69.8029 21.17C69.0349 21.17 68.4049 21.458 67.9129 22.034C67.4209 22.61 67.1749 23.33 67.1749 24.194C67.1749 25.058 67.4149 25.778 67.8949 26.354C68.3869 26.918 69.0229 27.2 69.8029 27.2ZM78.8937 27.902C78.8937 28.214 78.7917 28.478 78.5877 28.694C78.3837 28.898 78.1257 29 77.8137 29C77.5017 29 77.2437 28.898 77.0397 28.694C76.8357 28.478 76.7337 28.214 76.7337 27.902V20.468C76.7337 20.156 76.8357 19.898 77.0397 19.694C77.2437 19.478 77.5017 19.37 77.8137 19.37C78.1257 19.37 78.3837 19.478 78.5877 19.694C78.7917 19.898 78.8937 20.156 78.8937 20.468V27.902ZM77.7957 18.2C77.3877 18.2 77.0997 18.134 76.9317 18.002C76.7637 17.87 76.6797 17.636 76.6797 17.3V16.958C76.6797 16.622 76.7697 16.388 76.9497 16.256C77.1297 16.124 77.4177 16.058 77.8137 16.058C78.2337 16.058 78.5277 16.124 78.6957 16.256C78.8637 16.388 78.9477 16.622 78.9477 16.958V17.3C78.9477 17.648 78.8577 17.888 78.6777 18.02C78.5097 18.14 78.2157 18.2 77.7957 18.2ZM88.4985 27.902C88.4985 28.214 88.3905 28.478 88.1745 28.694C87.9705 28.898 87.7125 29 87.4005 29C87.1005 29 86.8485 28.898 86.6445 28.694C86.4405 28.478 86.3385 28.214 86.3385 27.902V16.778C86.3385 16.466 86.4405 16.208 86.6445 16.004C86.8605 15.788 87.1245 15.68 87.4365 15.68C87.7365 15.68 87.9885 15.788 88.1925 16.004C88.3965 16.208 88.4985 16.466 88.4985 16.778V27.902ZM93.7461 18.218C93.7461 18.494 93.6441 18.842 93.4401 19.262C93.2361 19.682 92.9721 20.048 92.6481 20.36C92.3241 20.672 91.9881 20.828 91.6401 20.828C91.3761 20.828 91.1661 20.774 91.0101 20.666C90.8541 20.546 90.7761 20.36 90.7761 20.108C90.7761 19.916 90.8241 19.784 90.9201 19.712C91.0161 19.628 91.1181 19.568 91.2261 19.532C91.3461 19.496 91.4301 19.466 91.4781 19.442C91.8141 19.262 91.9821 19.022 91.9821 18.722C91.9821 18.59 91.9161 18.476 91.7841 18.38C91.6641 18.272 91.5021 18.218 91.2981 18.218C91.0941 18.218 90.9261 18.26 90.7941 18.344C90.6501 18.284 90.5361 18.206 90.4521 18.11C90.3801 18.014 90.3441 17.87 90.3441 17.678C90.3441 17.438 90.4341 17.216 90.6141 17.012C90.7941 16.796 91.0161 16.628 91.2801 16.508C91.5441 16.376 91.8021 16.31 92.0541 16.31C92.5821 16.31 92.9961 16.478 93.2961 16.814C93.5961 17.138 93.7461 17.606 93.7461 18.218ZM105.273 16.4C105.609 16.4 105.879 16.502 106.083 16.706C106.287 16.91 106.389 17.174 106.389 17.498V27.902C106.389 28.214 106.281 28.478 106.065 28.694C105.849 28.898 105.573 29 105.237 29C104.937 29 104.679 28.898 104.463 28.694C104.247 28.478 104.139 28.214 104.139 27.902V23.708H98.3971V27.902C98.3971 28.214 98.2831 28.478 98.0551 28.694C97.8271 28.898 97.5631 29 97.2631 29C96.9391 29 96.6691 28.898 96.4531 28.694C96.2491 28.478 96.1471 28.214 96.1471 27.902V17.498C96.1471 17.186 96.2551 16.928 96.4711 16.724C96.6871 16.508 96.9631 16.4 97.2991 16.4C97.5991 16.4 97.8571 16.508 98.0731 16.724C98.2891 16.928 98.3971 17.186 98.3971 17.498V21.638H104.139V17.498C104.139 17.186 104.253 16.928 104.481 16.724C104.709 16.508 104.973 16.4 105.273 16.4ZM117.545 23.96C117.533 24.248 117.419 24.482 117.203 24.662C116.987 24.842 116.735 24.932 116.447 24.932H110.507C110.651 25.64 110.981 26.198 111.497 26.606C112.013 27.002 112.595 27.2 113.243 27.2C113.735 27.2 114.119 27.158 114.395 27.074C114.671 26.978 114.887 26.882 115.043 26.786C115.211 26.678 115.325 26.606 115.385 26.57C115.601 26.462 115.805 26.408 115.997 26.408C116.249 26.408 116.465 26.498 116.645 26.678C116.825 26.858 116.915 27.068 116.915 27.308C116.915 27.632 116.747 27.926 116.411 28.19C116.075 28.466 115.625 28.7 115.061 28.892C114.497 29.084 113.927 29.18 113.351 29.18C112.343 29.18 111.461 28.97 110.705 28.55C109.961 28.13 109.385 27.554 108.977 26.822C108.569 26.078 108.365 25.244 108.365 24.32C108.365 23.288 108.581 22.382 109.013 21.602C109.445 20.822 110.015 20.228 110.723 19.82C111.431 19.4 112.187 19.19 112.991 19.19C113.783 19.19 114.527 19.406 115.223 19.838C115.931 20.27 116.495 20.852 116.915 21.584C117.335 22.316 117.545 23.108 117.545 23.96ZM112.991 21.17C111.599 21.17 110.777 21.824 110.525 23.132H115.241V23.006C115.193 22.502 114.947 22.07 114.503 21.71C114.059 21.35 113.555 21.17 112.991 21.17ZM127.21 19.19C127.522 19.19 127.78 19.292 127.984 19.496C128.188 19.7 128.29 19.964 128.29 20.288V27.902C128.29 28.214 128.188 28.478 127.984 28.694C127.78 28.898 127.522 29 127.21 29C126.898 29 126.64 28.898 126.436 28.694C126.244 28.49 126.142 28.232 126.13 27.92C125.83 28.268 125.422 28.568 124.906 28.82C124.402 29.06 123.868 29.18 123.304 29.18C122.476 29.18 121.726 28.97 121.054 28.55C120.382 28.118 119.848 27.524 119.452 26.768C119.068 26.012 118.876 25.154 118.876 24.194C118.876 23.234 119.068 22.376 119.452 21.62C119.836 20.852 120.358 20.258 121.018 19.838C121.69 19.406 122.428 19.19 123.232 19.19C123.808 19.19 124.348 19.298 124.852 19.514C125.356 19.718 125.782 19.982 126.13 20.306V20.288C126.13 19.976 126.232 19.718 126.436 19.514C126.64 19.298 126.898 19.19 127.21 19.19ZM123.574 27.2C124.354 27.2 124.99 26.918 125.482 26.354C125.974 25.778 126.22 25.058 126.22 24.194C126.22 23.33 125.974 22.61 125.482 22.034C124.99 21.458 124.354 21.17 123.574 21.17C122.806 21.17 122.176 21.458 121.684 22.034C121.192 22.61 120.946 23.33 120.946 24.194C120.946 25.058 121.186 25.778 121.666 26.354C122.158 26.918 122.794 27.2 123.574 27.2ZM132.971 27.902C132.971 28.214 132.863 28.478 132.647 28.694C132.443 28.898 132.185 29 131.873 29C131.573 29 131.321 28.898 131.117 28.694C130.913 28.478 130.811 28.214 130.811 27.902V16.778C130.811 16.466 130.913 16.208 131.117 16.004C131.333 15.788 131.597 15.68 131.909 15.68C132.209 15.68 132.461 15.788 132.665 16.004C132.869 16.208 132.971 16.466 132.971 16.778V27.902ZM140.074 26.966C140.242 26.966 140.392 27.05 140.524 27.218C140.668 27.374 140.74 27.584 140.74 27.848C140.74 28.172 140.56 28.448 140.2 28.676C139.852 28.892 139.456 29 139.012 29C138.268 29 137.638 28.844 137.122 28.532C136.618 28.208 136.366 27.53 136.366 26.498V21.53H135.538C135.25 21.53 135.01 21.434 134.818 21.242C134.626 21.05 134.53 20.81 134.53 20.522C134.53 20.246 134.626 20.018 134.818 19.838C135.01 19.646 135.25 19.55 135.538 19.55H136.366V18.398C136.366 18.086 136.468 17.828 136.672 17.624C136.888 17.408 137.152 17.3 137.464 17.3C137.764 17.3 138.016 17.408 138.22 17.624C138.424 17.828 138.526 18.086 138.526 18.398V19.55H139.804C140.092 19.55 140.332 19.646 140.524 19.838C140.716 20.03 140.812 20.27 140.812 20.558C140.812 20.834 140.716 21.068 140.524 21.26C140.332 21.44 140.092 21.53 139.804 21.53H138.526V26.408C138.526 26.66 138.592 26.846 138.724 26.966C138.856 27.074 139.036 27.128 139.264 27.128C139.36 27.128 139.492 27.104 139.66 27.056C139.804 26.996 139.942 26.966 140.074 26.966ZM147.853 19.19C149.041 19.19 149.863 19.556 150.319 20.288C150.775 21.008 151.003 22.01 151.003 23.294V27.902C151.003 28.214 150.901 28.478 150.697 28.694C150.493 28.898 150.235 29 149.923 29C149.611 29 149.353 28.898 149.149 28.694C148.945 28.478 148.843 28.214 148.843 27.902V23.294C148.843 22.634 148.711 22.118 148.447 21.746C148.195 21.362 147.745 21.17 147.097 21.17C146.425 21.17 145.897 21.374 145.513 21.782C145.141 22.178 144.955 22.682 144.955 23.294V27.902C144.955 28.214 144.853 28.478 144.649 28.694C144.445 28.898 144.187 29 143.875 29C143.563 29 143.305 28.898 143.101 28.694C142.897 28.478 142.795 28.214 142.795 27.902V16.778C142.795 16.466 142.897 16.208 143.101 16.004C143.305 15.788 143.563 15.68 143.875 15.68C144.187 15.68 144.445 15.788 144.649 16.004C144.853 16.208 144.955 16.466 144.955 16.778V20.756C145.279 20.324 145.687 19.958 146.179 19.658C146.683 19.346 147.241 19.19 147.853 19.19ZM166.847 16.4C167.171 16.4 167.435 16.496 167.639 16.688C167.843 16.88 167.945 17.132 167.945 17.444C167.945 17.756 167.843 18.008 167.639 18.2C167.435 18.38 167.171 18.47 166.847 18.47H164.021V27.902C164.021 28.214 163.907 28.478 163.679 28.694C163.451 28.898 163.169 29 162.833 29C162.497 29 162.221 28.898 162.005 28.694C161.789 28.478 161.681 28.214 161.681 27.902V18.47H158.855C158.531 18.47 158.267 18.374 158.063 18.182C157.859 17.99 157.757 17.738 157.757 17.426C157.757 17.126 157.859 16.88 158.063 16.688C158.279 16.496 158.543 16.4 158.855 16.4H166.847ZM176.133 23.96C176.121 24.248 176.007 24.482 175.791 24.662C175.575 24.842 175.323 24.932 175.035 24.932H169.095C169.239 25.64 169.569 26.198 170.085 26.606C170.601 27.002 171.183 27.2 171.831 27.2C172.323 27.2 172.707 27.158 172.983 27.074C173.259 26.978 173.475 26.882 173.631 26.786C173.799 26.678 173.913 26.606 173.973 26.57C174.189 26.462 174.393 26.408 174.585 26.408C174.837 26.408 175.053 26.498 175.233 26.678C175.413 26.858 175.503 27.068 175.503 27.308C175.503 27.632 175.335 27.926 174.999 28.19C174.663 28.466 174.213 28.7 173.649 28.892C173.085 29.084 172.515 29.18 171.939 29.18C170.931 29.18 170.049 28.97 169.293 28.55C168.549 28.13 167.973 27.554 167.565 26.822C167.157 26.078 166.953 25.244 166.953 24.32C166.953 23.288 167.169 22.382 167.601 21.602C168.033 20.822 168.603 20.228 169.311 19.82C170.019 19.4 170.775 19.19 171.579 19.19C172.371 19.19 173.115 19.406 173.811 19.838C174.519 20.27 175.083 20.852 175.503 21.584C175.923 22.316 176.133 23.108 176.133 23.96ZM171.579 21.17C170.187 21.17 169.365 21.824 169.113 23.132H173.829V23.006C173.781 22.502 173.535 22.07 173.091 21.71C172.647 21.35 172.143 21.17 171.579 21.17ZM177.376 27.506C177.268 27.362 177.214 27.182 177.214 26.966C177.214 26.654 177.37 26.39 177.682 26.174C177.85 26.066 178.024 26.012 178.204 26.012C178.456 26.012 178.696 26.126 178.924 26.354C179.284 26.726 179.656 27.002 180.04 27.182C180.436 27.362 180.91 27.452 181.462 27.452C182.398 27.416 182.866 27.062 182.866 26.39C182.866 26.042 182.704 25.778 182.38 25.598C182.068 25.418 181.576 25.238 180.904 25.058C180.208 24.866 179.638 24.674 179.194 24.482C178.762 24.29 178.384 24.002 178.06 23.618C177.748 23.222 177.592 22.694 177.592 22.034C177.592 21.458 177.754 20.96 178.078 20.54C178.414 20.108 178.846 19.778 179.374 19.55C179.914 19.31 180.484 19.19 181.084 19.19C181.696 19.19 182.308 19.304 182.92 19.532C183.532 19.76 184.012 20.096 184.36 20.54C184.516 20.732 184.594 20.948 184.594 21.188C184.594 21.464 184.48 21.692 184.252 21.872C184.084 22.004 183.892 22.07 183.676 22.07C183.412 22.07 183.196 21.986 183.028 21.818C182.812 21.554 182.53 21.344 182.182 21.188C181.846 21.032 181.462 20.954 181.03 20.954C180.118 20.954 179.662 21.284 179.662 21.944C179.662 22.208 179.746 22.424 179.914 22.592C180.082 22.748 180.292 22.874 180.544 22.97C180.808 23.054 181.174 23.162 181.642 23.294C182.29 23.474 182.83 23.66 183.262 23.852C183.694 24.044 184.06 24.338 184.36 24.734C184.66 25.13 184.81 25.652 184.81 26.3C184.81 26.888 184.636 27.404 184.288 27.848C183.94 28.28 183.49 28.61 182.938 28.838C182.398 29.066 181.84 29.18 181.264 29.18C180.472 29.18 179.734 29.048 179.05 28.784C178.366 28.52 177.808 28.094 177.376 27.506ZM191.262 26.966C191.43 26.966 191.58 27.05 191.712 27.218C191.856 27.374 191.928 27.584 191.928 27.848C191.928 28.172 191.748 28.448 191.388 28.676C191.04 28.892 190.644 29 190.2 29C189.456 29 188.826 28.844 188.31 28.532C187.806 28.208 187.554 27.53 187.554 26.498V21.53H186.726C186.438 21.53 186.198 21.434 186.006 21.242C185.814 21.05 185.718 20.81 185.718 20.522C185.718 20.246 185.814 20.018 186.006 19.838C186.198 19.646 186.438 19.55 186.726 19.55H187.554V18.398C187.554 18.086 187.656 17.828 187.86 17.624C188.076 17.408 188.34 17.3 188.652 17.3C188.952 17.3 189.204 17.408 189.408 17.624C189.612 17.828 189.714 18.086 189.714 18.398V19.55H190.992C191.28 19.55 191.52 19.646 191.712 19.838C191.904 20.03 192 20.27 192 20.558C192 20.834 191.904 21.068 191.712 21.26C191.52 21.44 191.28 21.53 190.992 21.53H189.714V26.408C189.714 26.66 189.78 26.846 189.912 26.966C190.044 27.074 190.224 27.128 190.452 27.128C190.548 27.128 190.68 27.104 190.848 27.056C190.992 26.996 191.13 26.966 191.262 26.966Z" fill="#E1A12D"/>
</svg>
