<svg width="114" height="25" viewBox="0 0 114 25" fill="none" xmlns="http://www.w3.org/2000/svg">
<path d="M17.6826 16.4325C17.7999 16.3152 17.9591 16.2492 18.1251 16.2492C18.291 16.2492 18.4502 16.3152 18.5676 16.4325C18.6849 16.5499 18.7508 16.7091 18.7508 16.875C18.7508 17.041 18.6849 17.2002 18.5676 17.3175L13.5676 22.3175C13.5095 22.3757 13.4405 22.4219 13.3646 22.4534C13.2887 22.4849 13.2073 22.5011 13.1251 22.5011C13.0428 22.5011 12.9614 22.4849 12.8855 22.4534C12.8096 22.4219 12.7406 22.3757 12.6826 22.3175L7.68256 17.3175C7.62445 17.2594 7.57835 17.1904 7.5469 17.1145C7.51545 17.0386 7.49927 16.9572 7.49927 16.875C7.49927 16.7928 7.51545 16.7115 7.5469 16.6355C7.57835 16.5596 7.62445 16.4906 7.68256 16.4325C7.74067 16.3744 7.80965 16.3283 7.88558 16.2969C7.9615 16.2654 8.04288 16.2492 8.12506 16.2492C8.20724 16.2492 8.28861 16.2654 8.36454 16.2969C8.44046 16.3283 8.50945 16.3744 8.56756 16.4325L12.5001 20.3663L12.5001 12.5C12.5001 10.0438 12.1913 8.27503 11.5451 6.90878C10.9051 5.55878 9.91006 4.55003 8.42881 3.66128C8.28658 3.57608 8.18403 3.43787 8.14371 3.27706C8.10339 3.11625 8.1286 2.946 8.21381 2.80378C8.29901 2.66156 8.43721 2.55901 8.59803 2.51869C8.75884 2.47836 8.92908 2.50358 9.07131 2.58878C10.7151 3.57628 11.9076 4.75378 12.6738 6.37253C13.4338 7.97628 13.7501 9.95628 13.7501 12.5L13.7501 20.3663L17.6826 16.4325Z" fill="#E1A12D"/>
<path d="M36.2 19.14C35.528 19.14 34.9307 19.056 34.408 18.888C33.8853 18.72 33.3953 18.4353 32.938 18.034C32.686 17.81 32.56 17.5627 32.56 17.292C32.56 17.0773 32.6393 16.8907 32.798 16.732C32.9567 16.564 33.148 16.48 33.372 16.48C33.5493 16.48 33.708 16.536 33.848 16.648C34.2213 16.956 34.5853 17.18 34.94 17.32C35.2947 17.46 35.7147 17.53 36.2 17.53C36.7227 17.53 37.1707 17.4133 37.544 17.18C37.9267 16.9467 38.118 16.6573 38.118 16.312C38.118 15.892 37.9313 15.5653 37.558 15.332C37.1847 15.0893 36.592 14.9073 35.78 14.786C33.736 14.4873 32.714 13.5353 32.714 11.93C32.714 11.342 32.868 10.8333 33.176 10.404C33.484 9.96533 33.904 9.634 34.436 9.41C34.968 9.17667 35.5607 9.06 36.214 9.06C36.802 9.06 37.3527 9.14867 37.866 9.326C38.3887 9.50333 38.8227 9.73667 39.168 10.026C39.4387 10.2407 39.574 10.488 39.574 10.768C39.574 10.9827 39.4947 11.174 39.336 11.342C39.1773 11.5007 38.9907 11.58 38.776 11.58C38.636 11.58 38.51 11.538 38.398 11.454C38.1553 11.258 37.8147 11.0807 37.376 10.922C36.9467 10.754 36.5593 10.67 36.214 10.67C35.626 10.67 35.1687 10.782 34.842 11.006C34.5247 11.2207 34.366 11.5053 34.366 11.86C34.366 12.2613 34.5293 12.5647 34.856 12.77C35.192 12.9753 35.7147 13.1433 36.424 13.274C37.2267 13.414 37.866 13.596 38.342 13.82C38.8273 14.0347 39.1913 14.3333 39.434 14.716C39.6767 15.0893 39.798 15.5887 39.798 16.214C39.798 16.802 39.63 17.32 39.294 17.768C38.9673 18.2067 38.5287 18.5473 37.978 18.79C37.4273 19.0233 36.8347 19.14 36.2 19.14ZM44.5255 11.37C45.3188 11.37 45.9582 11.496 46.4435 11.748C46.9288 11.9907 47.1715 12.3173 47.1715 12.728C47.1715 12.9333 47.1108 13.1153 46.9895 13.274C46.8682 13.4233 46.7095 13.498 46.5135 13.498C46.3642 13.498 46.2428 13.4793 46.1495 13.442C46.0562 13.3953 45.9628 13.3393 45.8695 13.274C45.7855 13.1993 45.7015 13.1387 45.6175 13.092C45.5242 13.0453 45.3842 13.0033 45.1975 12.966C45.0202 12.9287 44.8755 12.91 44.7635 12.91C44.0635 12.91 43.5128 13.1293 43.1115 13.568C42.7195 13.9973 42.5235 14.562 42.5235 15.262C42.5235 15.934 42.7242 16.494 43.1255 16.942C43.5268 17.3807 44.0402 17.6 44.6655 17.6C45.1228 17.6 45.4635 17.544 45.6875 17.432C45.7435 17.404 45.8182 17.3573 45.9115 17.292C46.0142 17.2173 46.1075 17.1613 46.1915 17.124C46.2755 17.0867 46.3782 17.068 46.4995 17.068C46.7328 17.068 46.9148 17.1427 47.0455 17.292C47.1855 17.4413 47.2555 17.6327 47.2555 17.866C47.2555 18.09 47.1248 18.3 46.8635 18.496C46.6022 18.692 46.2568 18.8507 45.8275 18.972C45.3982 19.084 44.9408 19.14 44.4555 19.14C43.7368 19.14 43.1022 18.972 42.5515 18.636C42.0102 18.3 41.5902 17.838 41.2915 17.25C40.9928 16.6527 40.8435 15.99 40.8435 15.262C40.8435 14.506 40.9975 13.834 41.3055 13.246C41.6228 12.658 42.0615 12.2007 42.6215 11.874C43.1815 11.538 43.8162 11.37 44.5255 11.37ZM55.6646 15.262C55.6646 16.0087 55.4966 16.6807 55.1606 17.278C54.8246 17.866 54.3626 18.3233 53.7746 18.65C53.1959 18.9767 52.5566 19.14 51.8566 19.14C51.1473 19.14 50.5033 18.9767 49.9246 18.65C49.3459 18.3233 48.8886 17.866 48.5526 17.278C48.2166 16.6807 48.0486 16.0087 48.0486 15.262C48.0486 14.5153 48.2166 13.848 48.5526 13.26C48.8886 12.6627 49.3459 12.2007 49.9246 11.874C50.5033 11.538 51.1473 11.37 51.8566 11.37C52.5566 11.37 53.1959 11.538 53.7746 11.874C54.3626 12.2007 54.8246 12.6627 55.1606 13.26C55.4966 13.848 55.6646 14.5153 55.6646 15.262ZM53.9846 15.262C53.9846 14.8047 53.8866 14.3987 53.6906 14.044C53.5039 13.68 53.2473 13.4 52.9206 13.204C52.6033 13.008 52.2486 12.91 51.8566 12.91C51.4646 12.91 51.1053 13.008 50.7786 13.204C50.4613 13.4 50.2046 13.68 50.0086 14.044C49.8219 14.3987 49.7286 14.8047 49.7286 15.262C49.7286 15.7193 49.8219 16.1253 50.0086 16.48C50.2046 16.8347 50.4613 17.11 50.7786 17.306C51.1053 17.502 51.4646 17.6 51.8566 17.6C52.2486 17.6 52.6033 17.502 52.9206 17.306C53.2473 17.11 53.5039 16.8347 53.6906 16.48C53.8866 16.1253 53.9846 15.7193 53.9846 15.262ZM60.9462 11.37C61.5902 11.37 62.1735 11.538 62.6962 11.874C63.2189 12.2007 63.6295 12.658 63.9282 13.246C64.2362 13.834 64.3902 14.5013 64.3902 15.248C64.3902 15.9947 64.2409 16.6667 63.9422 17.264C63.6435 17.852 63.2329 18.314 62.7102 18.65C62.1969 18.9767 61.6275 19.14 61.0022 19.14C60.5542 19.14 60.1295 19.0513 59.7282 18.874C59.3362 18.6873 59.0095 18.4633 58.7482 18.202V20.946C58.7482 21.1887 58.6689 21.3893 58.5102 21.548C58.3515 21.716 58.1509 21.8 57.9082 21.8C57.6655 21.8 57.4649 21.7207 57.3062 21.562C57.1475 21.4033 57.0682 21.198 57.0682 20.946V12.364C57.0682 12.1213 57.1475 11.9207 57.3062 11.762C57.4649 11.594 57.6655 11.51 57.9082 11.51C58.1509 11.51 58.3515 11.594 58.5102 11.762C58.6689 11.9207 58.7482 12.1213 58.7482 12.364V12.42C58.9722 12.14 59.2849 11.8973 59.6862 11.692C60.0875 11.4773 60.5075 11.37 60.9462 11.37ZM60.7362 17.6C61.3335 17.6 61.8235 17.376 62.2062 16.928C62.5889 16.48 62.7802 15.92 62.7802 15.248C62.7802 14.576 62.5889 14.0207 62.2062 13.582C61.8329 13.134 61.3429 12.91 60.7362 12.91C60.1295 12.91 59.6349 13.134 59.2522 13.582C58.8695 14.0207 58.6782 14.576 58.6782 15.248C58.6782 15.92 58.8695 16.48 59.2522 16.928C59.6349 17.376 60.1295 17.6 60.7362 17.6ZM69.6829 11.37C69.9629 11.37 70.1962 11.4493 70.3829 11.608C70.5789 11.7667 70.6769 11.9533 70.6769 12.168C70.6769 12.4573 70.6022 12.6767 70.4529 12.826C70.3035 12.966 70.1262 13.036 69.9209 13.036C69.7809 13.036 69.6222 13.0033 69.4449 12.938C69.4169 12.9287 69.3515 12.91 69.2489 12.882C69.1555 12.854 69.0529 12.84 68.9409 12.84C68.6982 12.84 68.4649 12.9147 68.2409 13.064C68.0169 13.2133 67.8302 13.442 67.6809 13.75C67.5409 14.0487 67.4709 14.408 67.4709 14.828V18.146C67.4709 18.3887 67.3915 18.594 67.2329 18.762C67.0742 18.9207 66.8735 19 66.6309 19C66.3882 19 66.1875 18.9207 66.0289 18.762C65.8702 18.594 65.7909 18.3887 65.7909 18.146V12.364C65.7909 12.1213 65.8702 11.9207 66.0289 11.762C66.1875 11.594 66.3882 11.51 66.6309 11.51C66.8735 11.51 67.0742 11.594 67.2329 11.762C67.3915 11.9207 67.4709 12.1213 67.4709 12.364V12.546C67.6855 12.1633 67.9935 11.874 68.3949 11.678C68.7962 11.4727 69.2255 11.37 69.6829 11.37ZM73.4432 18.146C73.4432 18.3887 73.3638 18.594 73.2052 18.762C73.0465 18.9207 72.8458 19 72.6032 19C72.3605 19 72.1598 18.9207 72.0012 18.762C71.8425 18.594 71.7632 18.3887 71.7632 18.146V12.364C71.7632 12.1213 71.8425 11.9207 72.0012 11.762C72.1598 11.594 72.3605 11.51 72.6032 11.51C72.8458 11.51 73.0465 11.594 73.2052 11.762C73.3638 11.9207 73.4432 12.1213 73.4432 12.364V18.146ZM72.5892 10.6C72.2718 10.6 72.0478 10.5487 71.9172 10.446C71.7865 10.3433 71.7212 10.1613 71.7212 9.9V9.634C71.7212 9.37267 71.7912 9.19067 71.9312 9.088C72.0712 8.98533 72.2952 8.934 72.6032 8.934C72.9298 8.934 73.1585 8.98533 73.2892 9.088C73.4198 9.19067 73.4852 9.37267 73.4852 9.634V9.9C73.4852 10.1707 73.4152 10.3573 73.2752 10.46C73.1445 10.5533 72.9158 10.6 72.5892 10.6ZM85.1556 8.64C85.3983 8.64 85.5989 8.71933 85.7576 8.878C85.9163 9.03667 85.9956 9.242 85.9956 9.494V18.146C85.9956 18.3887 85.9163 18.594 85.7576 18.762C85.5989 18.9207 85.3983 19 85.1556 19C84.9129 19 84.7123 18.9207 84.5536 18.762C84.4043 18.6033 84.3249 18.4027 84.3156 18.16C84.0823 18.4307 83.7649 18.664 83.3636 18.86C82.9716 19.0467 82.5563 19.14 82.1176 19.14C81.4736 19.14 80.8903 18.9767 80.3676 18.65C79.8449 18.314 79.4296 17.852 79.1216 17.264C78.8229 16.676 78.6736 16.0087 78.6736 15.262C78.6736 14.5153 78.8229 13.848 79.1216 13.26C79.4203 12.6627 79.8263 12.2007 80.3396 11.874C80.8623 11.538 81.4363 11.37 82.0616 11.37C82.5096 11.37 82.9296 11.454 83.3216 11.622C83.7136 11.7807 84.0449 11.986 84.3156 12.238V9.494C84.3156 9.25133 84.3949 9.05067 84.5536 8.892C84.7123 8.724 84.9129 8.64 85.1556 8.64ZM82.3276 17.6C82.9343 17.6 83.4289 17.3807 83.8116 16.942C84.1943 16.494 84.3856 15.934 84.3856 15.262C84.3856 14.59 84.1943 14.03 83.8116 13.582C83.4289 13.134 82.9343 12.91 82.3276 12.91C81.7303 12.91 81.2403 13.134 80.8576 13.582C80.4749 14.03 80.2836 14.59 80.2836 15.262C80.2836 15.934 80.4703 16.494 80.8436 16.942C81.2263 17.3807 81.7209 17.6 82.3276 17.6ZM89.3983 18.146C89.3983 18.3887 89.3189 18.594 89.1603 18.762C89.0016 18.9207 88.8009 19 88.5583 19C88.3156 19 88.1149 18.9207 87.9563 18.762C87.7976 18.594 87.7183 18.3887 87.7183 18.146V12.364C87.7183 12.1213 87.7976 11.9207 87.9563 11.762C88.1149 11.594 88.3156 11.51 88.5583 11.51C88.8009 11.51 89.0016 11.594 89.1603 11.762C89.3189 11.9207 89.3983 12.1213 89.3983 12.364V18.146ZM88.5443 10.6C88.2269 10.6 88.0029 10.5487 87.8723 10.446C87.7416 10.3433 87.6763 10.1613 87.6763 9.9V9.634C87.6763 9.37267 87.7463 9.19067 87.8863 9.088C88.0263 8.98533 88.2503 8.934 88.5583 8.934C88.8849 8.934 89.1136 8.98533 89.2443 9.088C89.3749 9.19067 89.4403 9.37267 89.4403 9.634V9.9C89.4403 10.1707 89.3703 10.3573 89.2303 10.46C89.0996 10.5533 88.8709 10.6 88.5443 10.6ZM98.9267 11.37C99.5707 11.37 100.154 11.538 100.677 11.874C101.199 12.2007 101.61 12.658 101.909 13.246C102.217 13.834 102.371 14.5013 102.371 15.248C102.371 15.9947 102.221 16.6667 101.923 17.264C101.624 17.852 101.213 18.314 100.691 18.65C100.177 18.9767 99.608 19.14 98.9827 19.14C98.5347 19.14 98.11 19.0513 97.7087 18.874C97.3167 18.6873 96.99 18.4633 96.7287 18.202V20.946C96.7287 21.1887 96.6493 21.3893 96.4907 21.548C96.332 21.716 96.1313 21.8 95.8887 21.8C95.646 21.8 95.4453 21.7207 95.2867 21.562C95.128 21.4033 95.0487 21.198 95.0487 20.946V12.364C95.0487 12.1213 95.128 11.9207 95.2867 11.762C95.4453 11.594 95.646 11.51 95.8887 11.51C96.1313 11.51 96.332 11.594 96.4907 11.762C96.6493 11.9207 96.7287 12.1213 96.7287 12.364V12.42C96.9527 12.14 97.2653 11.8973 97.6667 11.692C98.068 11.4773 98.488 11.37 98.9267 11.37ZM98.7167 17.6C99.314 17.6 99.804 17.376 100.187 16.928C100.569 16.48 100.761 15.92 100.761 15.248C100.761 14.576 100.569 14.0207 100.187 13.582C99.8133 13.134 99.3233 12.91 98.7167 12.91C98.11 12.91 97.6153 13.134 97.2327 13.582C96.85 14.0207 96.6587 14.576 96.6587 15.248C96.6587 15.92 96.85 16.48 97.2327 16.928C97.6153 17.376 98.11 17.6 98.7167 17.6ZM105.353 18.146C105.353 18.3887 105.274 18.594 105.115 18.762C104.957 18.9207 104.756 19 104.513 19C104.271 19 104.07 18.9207 103.911 18.762C103.753 18.594 103.673 18.3887 103.673 18.146V12.364C103.673 12.1213 103.753 11.9207 103.911 11.762C104.07 11.594 104.271 11.51 104.513 11.51C104.756 11.51 104.957 11.594 105.115 11.762C105.274 11.9207 105.353 12.1213 105.353 12.364V18.146ZM104.499 10.6C104.182 10.6 103.958 10.5487 103.827 10.446C103.697 10.3433 103.631 10.1613 103.631 9.9V9.634C103.631 9.37267 103.701 9.19067 103.841 9.088C103.981 8.98533 104.205 8.934 104.513 8.934C104.84 8.934 105.069 8.98533 105.199 9.088C105.33 9.19067 105.395 9.37267 105.395 9.634V9.9C105.395 10.1707 105.325 10.3573 105.185 10.46C105.055 10.5533 104.826 10.6 104.499 10.6ZM112.638 11.51C112.881 11.51 113.081 11.594 113.24 11.762C113.399 11.9207 113.478 12.1213 113.478 12.364V15.92C113.478 16.928 113.198 17.7167 112.638 18.286C112.087 18.8553 111.299 19.14 110.272 19.14C109.245 19.14 108.457 18.8553 107.906 18.286C107.355 17.7167 107.08 16.928 107.08 15.92V12.364C107.08 12.1213 107.159 11.9207 107.318 11.762C107.477 11.594 107.677 11.51 107.92 11.51C108.163 11.51 108.363 11.594 108.522 11.762C108.681 11.9207 108.76 12.1213 108.76 12.364V15.92C108.76 16.4893 108.886 16.914 109.138 17.194C109.39 17.4647 109.768 17.6 110.272 17.6C110.785 17.6 111.168 17.4647 111.42 17.194C111.672 16.914 111.798 16.4893 111.798 15.92V12.364C111.798 12.1213 111.877 11.9207 112.036 11.762C112.195 11.594 112.395 11.51 112.638 11.51ZM110.328 11.02C110.225 11.02 110.118 10.992 110.006 10.936L108.606 10.194C108.438 10.1007 108.307 9.98867 108.214 9.858C108.13 9.72733 108.088 9.592 108.088 9.452C108.088 9.256 108.167 9.09267 108.326 8.962C108.485 8.83133 108.653 8.766 108.83 8.766C109.045 8.766 109.273 8.86867 109.516 9.074L110.72 10.138C110.851 10.2593 110.916 10.3853 110.916 10.516C110.916 10.6653 110.86 10.7867 110.748 10.88C110.645 10.9733 110.505 11.02 110.328 11.02Z" fill="#E1A12D"/>
</svg>
