<svg width="24" height="25" viewBox="0 0 24 25" fill="none" xmlns="http://www.w3.org/2000/svg">
<g clip-path="url(#clip0)">
<path d="M12 5.02619C9.43548 5.02619 7.35484 7.10432 7.35484 9.66573C7.35484 12.2271 9.43548 14.3053 12 14.3053C14.5645 14.3053 16.6452 12.2271 16.6452 9.66573C16.6452 7.10432 14.5645 5.02619 12 5.02619ZM12 11.9855C10.7177 11.9855 9.67742 10.9464 9.67742 9.66573C9.67742 8.38502 10.7177 7.34596 12 7.34596C13.2823 7.34596 14.3226 8.38502 14.3226 9.66573C14.3226 10.9464 13.2823 11.9855 12 11.9855ZM12 0.386658C5.37097 0.386658 0 5.75112 0 12.3721C0 18.9931 5.37097 24.3576 12 24.3576C18.629 24.3576 24 18.9931 24 12.3721C24 5.75112 18.629 0.386658 12 0.386658ZM12 22.0378C9.59516 22.0378 7.39839 21.1534 5.70484 19.6987C6.42581 18.5872 7.65968 17.8332 9.07258 17.7897C10.079 18.0991 11.0371 18.2537 12 18.2537C12.9629 18.2537 13.921 18.1039 14.9274 17.7897C16.3403 17.8381 17.5742 18.5872 18.2952 19.6987C16.6016 21.1534 14.4048 22.0378 12 22.0378ZM19.8726 17.9734C18.6919 16.4559 16.8677 15.4651 14.7871 15.4651C14.2935 15.4651 13.529 15.9291 12 15.9291C10.4758 15.9291 9.70645 15.4651 9.2129 15.4651C7.1371 15.4651 5.3129 16.4559 4.12742 17.9734C2.99516 16.3931 2.32258 14.4599 2.32258 12.3721C2.32258 7.04149 6.6629 2.70643 12 2.70643C17.3371 2.70643 21.6774 7.04149 21.6774 12.3721C21.6774 14.4599 21.0048 16.3931 19.8726 17.9734Z" fill="#0092D4"/>
</g>
<defs>
<clipPath id="clip0">
<rect width="24" height="24.7442" fill="white"/>
</clipPath>
</defs>
</svg>
