<svg width="727" height="742" viewBox="0 0 727 742" fill="none" xmlns="http://www.w3.org/2000/svg">
<path opacity="0.2" d="M638.255 518.464C586.057 618.94 482.568 687.565 363.5 687.565C192.073 687.565 52.6348 545.387 52.6348 370.608C52.6348 195.83 192.095 53.6588 363.5 53.6588C534.905 53.6588 674.38 195.837 674.38 370.623C674.342 401.174 669.956 431.558 661.359 460.825C675.733 472.312 691.094 482.454 707.255 491.127C720.332 452.35 727.005 411.628 727 370.623C727 165.928 564.268 0 363.5 0C162.732 0 0 165.928 0 370.623C0 575.318 162.739 741.246 363.5 741.246C501.855 741.246 622.159 662.422 683.547 546.439C667.795 538.26 652.65 528.918 638.233 518.487" fill="#0092D4"/>
</svg>
